<?xml version="1.0" encoding="UTF-8"?>
<svg width="900" height="600" version="1.1" viewBox="0 0 238.12 158.75" xmlns="http://www.w3.org/2000/svg">
 <style type="text/css">.st0{fill:#63C3D1;}</style>
 <style type="text/css">.st0{fill:#63C3D1;}</style>
 <g transform="translate(-242.29,-151.34)" fill="#fff">
  <g transform="translate(-.0041 .00216)" fill="#fff">
   <g transform="matrix(.26458 0 0 .26458 242.29 151.34)" fill="#fff">
    <rect width="900" height="600" fill="#fff"/>
   </g>
  </g>
 </g>
 <path d="m183.56 36.973h-9.6358v95.594h5.8363v-92.651z" fill="#650757"/>
 <g transform="matrix(.12897 0 0 .12897 54.273 .30316)">
  <g transform="matrix(1.2077 0 0 1.2077 -1060.9 -627.14)">
   <path d="m976.46 1388.6v-42.314l628.04-31.464 57.96-560.07h46v633.85z" fill="#650757"/>
   <path d="m890.54 1338v-665.42h761.71l-0.1507 3.6533c0.4984 221.73 0.279 466.04 0.269 661.24-273.02 0.8395-521.05-0.825-761.83 0.5244z" fill="#fff" stroke-width=".9742"/>
   <path d="m880.45 1346.8v-683.04h782v682.5zm475.5-32.198c28.547-4.8414 45.577-21.571 49.488-48.617 0.5348-3.6979 0.9805-30.348 0.9905-59.223l0.018-52.5h-40.855l-0.3673 50.5c-0.3482 47.882-0.4746 50.819-2.4375 56.658-1.1387 3.387-3.0597 7.5478-4.269 9.2461-5.1557 7.2405-16.764 10.546-28.488 8.1122-3.2311-0.6992-6.6563-2.0054-10.483-5.8685-8.4746-8.5559-8.4095-8.0618-8.8466-67.148l-0.381-51.5-40.903 0.192 0.021 54.904c0.023 61.004 0.2164 63.281 6.4369 75.904 11.72 23.782 43.718 35.506 80.076 29.34zm160.49 0.038c14.861-2.3369 30.212-11.483 37.062-22.081 9.8303-15.209 11.581-38.676 4.0042-53.685-5.5374-10.969-14.726-16.951-37.057-24.123-8.525-2.738-16.938-5.8592-18.696-6.936-8.6462-5.297-8.6616-14.825-0.033-20.072 8.4832-5.159 23.255-2.7294 34.456 5.6669l3.2273 2.4194 8.0227-16.022c4.4125-8.812 8.0227-16.276 8.0227-16.586 0-1.113-12.665-6.4132-21.151-8.8514-42.532-12.22-75.004 3.2648-81.545 38.886-1.3985 7.6164-1.4629 10.205-0.435 17.474 2.8509 20.16 11.67 28.193 40.131 36.556 20.356 5.9815 26.59 10.43 26.409 18.843-0.1779 8.2504-6.3778 13.54-16.855 14.381-11.007 0.8835-21.57-2.8537-33.407-11.819-2.9445-2.2301-5.478-3.9138-5.6301-3.7417-0.1521 0.1722-4.1435 7.6972-8.8699 16.722-9.8682 18.843-10.235 16.277 3.3536 23.463 18.368 9.7139 37.778 12.842 58.99 9.5059zm-487.87-54.128c-0.065-0.4125 7.6441-0.7578 17.132-0.7673 25.91-0.026 36.581-2.981 47.269-13.089 9.4443-8.9321 14.427-22.526 14.464-39.46 0.055-25.742-10.942-42.334-32.91-49.652-6.1942-2.0635-8.8865-2.2208-46.823-2.7353l-40.251-0.5459 2e-3 157.5h41l0.1184-51.25zm0.6398-34.358c-0.3818-38.392 2e-4 0-0.3818-38.392h7.6754c9.675 0 17.724 1.4848 20.948 3.864 5.7325 4.2307 8.3803 14.135 6.0264 22.542-2.3368 8.3461-8.2385 11.435-23.498 12.299-5.6385 0.3193-10.476 0.1789-10.771-0.3127zm207.24 50.608h-48.985l-0.5154-122.2-41 0.152-0.5121 157.05h91.012zm401-587.99c-244-0.16846-488-0.33692-732-0.50539l-2e-3 2.75c-3e-3 3.5994-3e-3 432.6 0 433.25 257.8 0.7586 454.27 0.5 732 0.5 3e-4 -151.64-3e-4 -280.5-3e-4 -435.99zm-662.7 384.82-9.9652-5.7452 14.838-88.898s0.96306 0.60769 2.5762 1.9084c15.363 12.387 38.099 26.651 56.985 32.823 14.981 4.8955 25.141 6.5125 40.765 6.4876 28.294 0.2342 44.779-13.376 54.187-30.525 4.4812-9.2609 5.6745-15.6 5.0546-26.849-0.8257-14.986-5.8393-26.049-16.484-36.375-30.481-28.844-89.666-28.325-128.27-9.16l-3.6769 1.6338 31.117-198.13h189.57v80.968l-125.95-0.46752-6.1889 42.027c-0.2396 1.6271-17.997 2.118 0 3e-3 52.399-6.1596 79.002 0.36314 104.3 17.027 9.3764 6.1775 24.056 20.98 30.789 31.047 15.84 23.682 23.345 49.066 23.475 79.395 0.099 23.088-3.3725 38.223-13.419 58.5-19.937 40.24-56.33 63.47-109.54 69.919-54.389 5.8401-101.34-4.0569-140.16-25.594zm438.29 25.6c-46.354-7.0709-82.896-36.081-106.07-83.926-15.548-32.095-23.527-69.853-23.502-111.21 0.059-98.336 44.128-172.61 113.99-192.11 34.219-9.5543 77.132-5.6998 105.98 9.5192 47.684 25.157 78.424 77.053 87.648 147.97 2.0174 15.51 2.2789 50.009 0.4954 65.334-4.231 36.352-15.836 72.45-31.317 97.41-21.477 34.629-49.104 56.007-87.23 65.057-15.47 3.6723-41.16 4.2605-59.989 1.9586zm80.819-151.23c11.48-54.672 0.4921-118.16-24.884-143.78-8.0633-8.1411-15.137-11.946-24.695-13.282-20.339-2.8439-38.582 8.5968-50.108 31.424-3.9389 7.8005-9.3022 24.022-11.575 35.009-5.2151 25.211-6.3434 46.688-3.6585 69.64 2.858 24.432 7.3443 40.75 16.066 58.433 10.038 20.353 22.779 30.145 41.95 32.242 38.448-0.4571 52.305-48.852 56.905-69.682z" fill="#93117e"/>
  </g>
 </g>
</svg>
