<?xml version="1.0" encoding="UTF-8" standalone="no"?>
<!-- Generator: Adobe Illustrator 26.5.0, SVG Export Plug-In . SVG Version: 6.00 Build 0)  -->

<svg
   version="1.1"
   x="0px"
   y="0px"
   viewBox="0 0 632.6 337.20002"
   xml:space="preserve"
   id="svg52"
   sodipodi:docname="bbb_logo_witte_rand_2022.svg"
   width="632.59998"
   height="337.20001"
   inkscape:version="1.1.2 (b8e25be833, 2022-02-05)"
   xmlns:inkscape="http://www.inkscape.org/namespaces/inkscape"
   xmlns:sodipodi="http://sodipodi.sourceforge.net/DTD/sodipodi-0.dtd"
   xmlns:xlink="http://www.w3.org/1999/xlink"
   xmlns="http://www.w3.org/2000/svg"
   xmlns:svg="http://www.w3.org/2000/svg"><defs
   id="defs56" /><sodipodi:namedview
   id="namedview54"
   pagecolor="#505050"
   bordercolor="#eeeeee"
   borderopacity="1"
   inkscape:pageshadow="0"
   inkscape:pageopacity="0"
   inkscape:pagecheckerboard="0"
   showgrid="false"
   fit-margin-top="0"
   fit-margin-left="0"
   fit-margin-right="0"
   fit-margin-bottom="0"
   inkscape:zoom="1.1788536"
   inkscape:cx="285.02266"
   inkscape:cy="178.13916"
   inkscape:window-width="1920"
   inkscape:window-height="1017"
   inkscape:window-x="-8"
   inkscape:window-y="-8"
   inkscape:window-maximized="1"
   inkscape:current-layer="svg52" />
<style
   type="text/css"
   id="style2">
	.st0{clip-path:url(#SVGID_00000086678297566203527260000000898833859479275924_);fill:#FFFFFF;}
	.st1{clip-path:url(#SVGID_00000069367553790540049440000007761172618704465810_);fill:#FFFFFF;}
	.st2{fill:#FFFFFF;}
	.st3{fill:#93C01F;}
</style>
<g
   id="Laag_2"
   transform="translate(-45.9)">
</g>
<g
   id="Laag_1"
   transform="translate(-45.9)">
	<g
   id="Laag_4">
	</g>
	<g
   id="Laag_3">
	</g>
	<g
   id="Laag_2_00000146489534136289356480000001033333222455494800_">
		<g
   id="g31">
			<g
   id="g17">
				<g
   id="g15">
					<defs
   id="defs8">
						<rect
   id="SVGID_1_"
   y="134.8"
   width="407.60001"
   height="38.799999"
   x="0" />
					</defs>
					<clipPath
   id="SVGID_00000106115462803802880510000013504676348621278124_">
						<use
   xlink:href="#SVGID_1_"
   style="overflow:visible"
   id="use10"
   x="0"
   y="0"
   width="100%"
   height="100%" />
					</clipPath>
					
				</g>
			</g>
			<g
   id="g29">
				<g
   id="g27">
					<defs
   id="defs20">
						<rect
   id="SVGID_00000060032488239126203960000009510950957997274800_"
   y="134.3"
   width="407.60001"
   height="39.299999"
   x="0" />
					</defs>
					<clipPath
   id="SVGID_00000142876647665332014230000004001348084651539356_">
						<use
   xlink:href="#SVGID_00000060032488239126203960000009510950957997274800_"
   style="overflow:visible"
   id="use22"
   x="0"
   y="0"
   width="100%"
   height="100%" />
					</clipPath>
					
				</g>
			</g>
		</g>
	</g>
	<g
   id="Laag_1_00000067938546119109844690000018279989193677128354_">
		
	</g>
	<g
   id="g49">
		<path
   class="st3"
   d="M 274.1,0 C 244,0 219.6,24.4 219.6,54.5 v 100.4 c 0,4.7 3.8,8.5 8.5,8.5 H 328.5 C 358.6,163.4 383,139 383,108.9 383,78.8 358.7,54.5 328.7,54.3 328.6,24.3 304.2,0 274.1,0 m 69.4,123.8 0.1,0.1 c -8.3,8.3 -21.7,8.3 -30,0.1 l -7.8,-7.8 c -4,-4 -4,-10.4 0,-14.4 l 7.8,-7.8 -0.1,-0.1 c 8.3,-8.3 21.7,-8.3 30,-0.1 8.3,8.3 8.3,21.7 0,30 M 289,69.4 l 0.1,0.1 -7.8,7.8 c -4,4 -10.4,4 -14.4,0 l -7.8,-7.8 c -8.3,-8.3 -8.3,-21.7 0.1,-30 l -0.1,-0.1 c 8.3,-8.3 21.7,-8.3 30,-0.1 8.3,8.3 8.2,21.8 -0.1,30.1"
   id="path37" />
		<path
   class="st3"
   d="m 154.8,337.1 c 30.1,0 54.5,-24.4 54.5,-54.5 V 182.2 c 0,-4.7 -3.8,-8.5 -8.5,-8.5 H 100.4 c -30.1,0 -54.5,24.4 -54.5,54.5 0,30.1 24.3,54.4 54.3,54.6 0.1,30 24.5,54.3 54.6,54.3 M 85.4,213.3 85.3,213.2 c 8.3,-8.3 21.7,-8.3 30,-0.1 l 7.8,7.8 c 4,4 4,10.4 0,14.4 l -7.8,7.8 0.1,0.1 c -8.3,8.3 -21.7,8.3 -30,0.1 -8.3,-8.3 -8.3,-21.7 0,-30 m 54.5,54.4 -0.1,-0.1 7.8,-7.8 c 4,-4 10.4,-4 14.4,0 l 7.8,7.8 c 8.3,8.3 8.3,21.7 -0.1,30 l 0.1,0.1 c -8.3,8.3 -21.7,8.3 -30,0.1 -8.3,-8.3 -8.2,-21.8 0.1,-30.1"
   id="path39" />
		<path
   class="st3"
   d="m 100.2,54.3 c -30,0.1 -54.3,24.5 -54.3,54.6 0,30.2 24.4,54.6 54.5,54.5 h 100.4 c 4.7,0 8.5,-3.8 8.5,-8.5 V 54.5 C 209.3,24.4 184.9,0 154.8,0 124.7,0 100.3,24.3 100.2,54.3 M 85.4,93.8 c 8.3,-8.3 21.7,-8.2 30,0.1 l -0.1,0.1 7.8,7.8 c 4,4 4,10.4 0,14.4 l -7.8,7.8 c -8.3,8.3 -21.7,8.3 -30,-0.1 l 0.1,-0.1 c -8.3,-8.3 -8.3,-21.7 0,-30 m 54.4,-54.4 c 8.3,-8.3 21.7,-8.3 30,0.1 l -0.1,0.1 c 8.3,8.3 8.3,21.7 0.1,30 l -7.8,7.8 c -4,4 -10.4,4 -14.4,0 l -7.8,-7.8 0.1,-0.1 c -8.3,-8.4 -8.4,-21.9 -0.1,-30.1"
   id="path41" />
		<path
   class="st3"
   d="m 357,265.8 c -5.9,-6.2 -13.8,-10.9 -23.8,-14.1 7.3,-3.1 13.3,-7.6 18,-13.4 4.7,-5.9 7.1,-13.5 7.1,-23 v -0.5 c 0,-5.6 -0.9,-10.6 -2.8,-14.9 -1.9,-4.3 -4.4,-8.2 -7.7,-11.4 -4.8,-4.8 -10.9,-8.5 -18.2,-11 -7.3,-2.5 -16.1,-3.7 -26.3,-3.7 H 253 228.1 c -4.7,0 -8.5,3.8 -8.5,8.5 v 27.4 73 c 0,30 24.3,54.4 54.3,54.5 h 30 c 19.6,0 34.8,-4 45.6,-11.9 10.8,-7.9 16.2,-19 16.2,-33.2 v -0.5 c 0.1,-11.1 -2.9,-19.7 -8.7,-25.8 m -93.2,-55.7 h 29.4 c 6.8,0 12,1.2 15.4,3.6 3.4,2.4 5.1,5.9 5.1,10.4 v 0.5 c 0,4.8 -1.8,8.4 -5.5,10.8 -3.7,2.3 -9,3.5 -16,3.5 h -28.5 v -28.8 z m 56.7,75.6 c 0,4.8 -1.9,8.5 -5.6,11.1 -3.7,2.6 -9.1,3.8 -16.1,3.8 h -19.6 -5.3 c -5.6,-0.1 -10.1,-4.7 -10.1,-10.3 v -19.8 h 34.6 c 7.6,0 13.2,1.3 16.8,4 3.6,2.7 5.4,6.2 5.4,10.8 z"
   id="path43" />
		<path
   class="st3"
   d="M 669.8,265.8 C 664,259.6 656,254.9 646,251.7 c 7.3,-3.1 13.3,-7.6 18,-13.4 4.7,-5.9 7.1,-13.5 7.1,-23 v -0.5 c 0,-5.6 -0.9,-10.6 -2.8,-14.9 -1.9,-4.3 -4.4,-8.2 -7.7,-11.4 -4.8,-4.8 -10.9,-8.5 -18.2,-11 -7.3,-2.5 -16.1,-3.7 -26.3,-3.7 h -50.3 -24.9 c -4.7,0 -8.5,3.8 -8.5,8.5 v 27.4 73 c 0,30 24.3,54.4 54.3,54.5 h 30 c 19.6,0 34.8,-4 45.6,-11.9 10.8,-7.9 16.2,-19 16.2,-33.2 v -0.5 c 0,-11.1 -2.9,-19.7 -8.7,-25.8 m -93.3,-55.7 h 29.4 c 6.8,0 12,1.2 15.4,3.6 3.4,2.4 5.1,5.9 5.1,10.4 v 0.5 c 0,4.8 -1.8,8.4 -5.5,10.8 -3.7,2.3 -9,3.5 -16,3.5 h -28.5 z m 56.7,75.6 c 0,4.8 -1.9,8.5 -5.6,11.1 -3.7,2.6 -9.1,3.8 -16.1,3.8 h -19.6 -5.3 c -5.6,-0.1 -10.1,-4.7 -10.1,-10.3 v -19.8 h 34.6 c 7.6,0 13.2,1.3 16.8,4 3.6,2.7 5.4,6.2 5.4,10.8 v 0.4 z"
   id="path45" />
		<path
   class="st3"
   d="m 513.4,265.8 c -5.9,-6.2 -13.8,-10.9 -23.8,-14.1 7.3,-3.1 13.3,-7.6 18,-13.4 4.7,-5.9 7.1,-13.5 7.1,-23 v -0.5 c 0,-5.6 -0.9,-10.6 -2.8,-14.9 -1.9,-4.3 -4.4,-8.2 -7.7,-11.4 -4.8,-4.8 -10.9,-8.5 -18.2,-11 -7.3,-2.5 -16.1,-3.7 -26.3,-3.7 h -50.3 -24.9 c -4.7,0 -8.5,3.8 -8.5,8.5 v 27.4 73 c 0,30 24.3,54.4 54.3,54.5 h 30 c 19.6,0 34.8,-4 45.6,-11.9 10.8,-7.9 16.2,-19 16.2,-33.2 v -0.5 c 0.1,-11.1 -2.9,-19.7 -8.7,-25.8 m -93.3,-55.7 h 29.4 c 6.8,0 12,1.2 15.4,3.6 3.4,2.4 5.1,5.9 5.1,10.4 v 0.5 c 0,4.8 -1.8,8.4 -5.5,10.8 -3.7,2.3 -9,3.5 -16,3.5 H 420 v -28.8 z m 56.8,75.6 c 0,4.8 -1.9,8.5 -5.6,11.1 -3.7,2.6 -9.1,3.8 -16.1,3.8 h -19.6 -5.3 c -5.6,-0.1 -10.1,-4.7 -10.1,-10.3 v -19.8 h 34.6 c 7.6,0 13.2,1.3 16.8,4 3.6,2.7 5.4,6.2 5.4,10.8 z"
   id="path47" />
	</g>
</g>
</svg>
