<?xml version="1.0" encoding="UTF-8"?>
<!-- Generator: Adobe Illustrator 27.7.0, SVG Export Plug-In . SVG Version: 6.00 Build 0)  -->
<svg xmlns="http://www.w3.org/2000/svg" xmlns:xlink="http://www.w3.org/1999/xlink" version="1.1" x="0px" y="0px" viewBox="0 0 735.704 420.904" style="enable-background:new 0 0 735.704 420.904;" xml:space="preserve">
<g id="_x5F_blauw-rgb">
	<g>
		<g>
			<polygon style="fill:#E30613;" points="-375.822,291.306 -418.433,291.306 -359.338,350.404 -418.437,409.5 -375.82,409.5      -316.722,350.404    "></polygon>
			<polygon style="fill:#0086FF;" points="-306.542,291.306 -349.154,291.306 -290.059,350.404 -349.157,409.5 -306.541,409.5      -247.443,350.404    "></polygon>
		</g>
	</g>
	<g>
		<g>
			<path style="fill:#1D2446;" d="M-937.959,199.894V59.27h77.544c9.91,0,18.147,1.677,24.709,5.022     c6.562,3.35,11.518,7.97,14.866,13.86c3.347,5.895,5.022,12.526,5.022,19.888c0,5.361-1.003,10.618-3.011,15.773     c-2.011,5.155-5.493,9.613-10.447,13.36v0.402c5.756,2.276,10.378,6.023,13.86,11.246c3.482,5.223,5.223,10.981,5.223,17.279     c0,8.573-1.807,16.136-5.424,22.698c-3.615,6.562-8.973,11.722-16.07,15.469c-7.102,3.752-15.94,5.626-26.519,5.626H-937.959z      M-897.378,115.319h29.732c4.419,0,7.835-1.035,10.246-3.114c2.411-2.075,3.617-5.258,3.617-9.544     c0-4.282-1.275-7.43-3.818-9.441c-2.545-2.006-6.697-3.011-12.455-3.011h-27.321V115.319z M-897.378,167.352h28.327     c5.756,0,10.111-0.937,13.056-2.815c2.945-1.874,4.422-5.287,4.422-10.246c0-4.551-1.175-7.901-3.517-10.045     c-2.344-2.143-5.996-3.213-10.95-3.213h-31.338V167.352z"></path>
			<path style="fill:#1D2446;" d="M-754.343,200.095L-808.786,59.27h44.198l33.349,94.821h0.802l31.944-94.821h44.396     l-55.648,140.826H-754.343z"></path>
			<path style="fill:#1D2446;" d="M-638.028,199.894V59.27h36.162l57.656,71.72h0.402V59.27h40.178v140.625h-34.354l-59.262-73.927     h-0.402v73.927H-638.028z"></path>
			<path style="fill:#1D2446;" d="M-478.923,199.894V59.27h40.581v105.066h66.695v35.558H-478.923z"></path>
		</g>
		<g>
			<polygon style="fill:#E30613;" points="-371.831,0 -414.443,0 -355.347,59.098 -414.446,118.194 -371.829,118.194      -312.731,59.098    "></polygon>
			<polygon style="fill:#0086FF;" points="-302.552,0 -345.164,0 -286.068,59.098 -345.167,118.194 -302.55,118.194      -243.452,59.098    "></polygon>
		</g>
	</g>
	<g>
		<g>
			<path style="fill:#1D2446;" d="M58.572,298.773c2.99-1.448,5.273-3.54,6.844-6.264c1.571-2.73,2.356-5.93,2.356-9.602     c0-3.795-1.051-6.937-3.157-9.426c-2.106-2.489-4.757-4.119-7.958-4.89v-0.088c3.201-1.188,5.454-3.039,6.76-5.557     c1.301-2.518,1.954-5.292,1.954-8.316c0-3.137-0.741-5.896-2.224-8.267c-1.483-2.371-3.599-4.237-6.357-5.602     c-2.754-1.36-6.117-2.042-10.089-2.042H19.76v62.235H47.59C51.915,300.953,55.578,300.226,58.572,298.773z M27.32,245.385h19.023     c4.089,0,7.055,0.889,8.891,2.666c1.841,1.782,2.759,4.242,2.759,7.379c0,3.201-0.874,5.695-2.622,7.472     c-1.753,1.777-4.404,2.666-7.958,2.666H27.32V245.385z M27.32,294.286v-22.052h20.447c3.854,0,6.858,0.923,9.023,2.759     s3.245,4.384,3.245,7.644c0,3.913-1.036,6.834-3.108,8.758c-2.077,1.929-5.277,2.892-9.603,2.892H27.32z"></path>
			<polygon style="fill:#1D2446;" points="126.183,294.286 88.131,294.286 88.131,272.415 122.005,272.415 122.005,265.743      88.131,265.743 88.131,245.385 125.559,245.385 125.559,238.718 80.571,238.718 80.571,300.953 126.183,300.953    "></polygon>
			<polygon style="fill:#1D2446;" points="181.662,294.286 146.365,294.286 146.365,238.718 138.804,238.718 138.804,300.953      181.662,300.953    "></polygon>
			<path style="fill:#1D2446;" d="M198.552,285.837h31.439l5.903,15.116h8.272l-25.165-62.235h-9.156l-25.16,62.235h7.914     L198.552,285.837z M214.201,246.096h0.27l12.917,33.074h-26.21L214.201,246.096z"></path>
			<polygon style="fill:#1D2446;" points="260.701,251.698 260.878,251.698 301.419,300.953 307.379,300.953 307.379,238.718      299.907,238.718 299.907,286.907 299.73,286.907 259.901,238.718 253.229,238.718 253.229,300.953 260.701,300.953    "></polygon>
			<path style="fill:#1D2446;" d="M365.033,301.218c2.46-0.412,4.89-0.992,7.29-1.733c2.401-0.741,4.698-1.615,6.893-2.622v-28.719     h-27.831v6.672h20.27v18.135c-2.307,0.712-4.679,1.262-7.109,1.645c-2.435,0.388-4.713,0.579-6.848,0.579     c-6.107,0-11.336-0.992-15.69-2.98c-4.359-1.983-7.678-4.86-9.961-8.626c-2.283-3.76-3.422-8.37-3.422-13.824     c0-5.513,1.183-10.103,3.554-13.78c2.371-3.672,5.587-6.461,9.647-8.356c4.06-1.9,8.67-2.847,13.829-2.847     c2.19,0,4.487,0.177,6.888,0.535c2.401,0.353,4.875,0.859,7.423,1.512l3.201,0.889l1.512-5.96l-2.842-1.065     c-2.612-0.948-5.307-1.659-8.09-2.136c-2.788-0.471-5.543-0.707-8.272-0.707c-4.801,0-9.288,0.697-13.466,2.086     c-4.183,1.394-7.855,3.441-11.026,6.137c-3.171,2.695-5.646,6.014-7.423,9.956c-1.777,3.942-2.671,8.493-2.671,13.648     c0,6.819,1.453,12.627,4.359,17.428c2.901,4.801,7.114,8.459,12.622,10.977c5.513,2.523,12.121,3.78,19.828,3.78     C360.129,301.841,362.573,301.635,365.033,301.218z"></path>
			<polygon style="fill:#1D2446;" points="444.293,301.399 469.718,238.718 461.539,238.718 440.292,292.774 440.022,292.774      418.51,238.718 410.149,238.718 435.491,301.399    "></polygon>
			<path style="fill:#1D2446;" d="M488.565,238.718l-25.16,62.235h7.914l5.952-15.116h31.439l5.903,15.116h8.272l-25.165-62.235     H488.565z M479.896,279.17l13.023-33.074h0.27l12.917,33.074H479.896z"></path>
			<polygon style="fill:#1D2446;" points="539.42,251.698 539.596,251.698 580.137,300.953 586.097,300.953 586.097,238.718      578.625,238.718 578.625,286.907 578.448,286.907 538.62,238.718 531.948,238.718 531.948,300.953 539.42,300.953    "></polygon>
			<polygon style="fill:#1D2446;" points="66.437,383.222 66.26,383.222 26.431,335.033 19.76,335.033 19.76,397.267      27.232,397.267 27.232,348.013 27.408,348.013 67.949,397.267 73.909,397.267 73.909,335.033 66.437,335.033    "></polygon>
			<polygon style="fill:#1D2446;" points="99.869,368.73 133.743,368.73 133.743,362.058 99.869,362.058 99.869,341.699      137.297,341.699 137.297,335.033 92.309,335.033 92.309,397.267 137.921,397.267 137.921,390.601 99.869,390.601    "></polygon>
			<path style="fill:#1D2446;" d="M191.22,338.764c-4.772-2.489-10.388-3.731-16.849-3.731h-22.141v62.235h21.341     c6.696,0,12.489-1.247,17.379-3.736c4.895-2.489,8.67-6.058,11.34-10.712c2.666-4.654,4.001-10.182,4.001-16.583     c0-6.519-1.321-12.101-3.957-16.755C199.694,344.827,195.992,341.253,191.22,338.764z M195.663,379.309     c-1.924,3.613-4.713,6.402-8.356,8.356c-3.648,1.959-8.046,2.936-13.201,2.936h-14.315v-48.901h14.315     c5.273,0,9.72,0.947,13.334,2.847c3.613,1.895,6.372,4.664,8.267,8.311c1.9,3.643,2.847,8.105,2.847,13.378     C198.555,371.337,197.593,375.691,195.663,379.309z"></path>
			<polygon style="fill:#1D2446;" points="229.051,368.73 262.925,368.73 262.925,362.058 229.051,362.058 229.051,341.699      266.48,341.699 266.48,335.033 221.491,335.033 221.491,397.267 267.103,397.267 267.103,390.601 229.051,390.601    "></polygon>
			<path style="fill:#1D2446;" d="M316.269,370.684c2.96-0.889,5.435-2.145,7.423-3.78c1.983-1.63,3.481-3.628,4.487-5.999     c1.011-2.371,1.512-5.007,1.512-7.914c0-3.913-0.903-7.202-2.71-9.868c-1.807-2.671-4.33-4.683-7.555-6.048     c-3.235-1.36-7.04-2.042-11.429-2.042h-26.584v62.235h7.56v-25.248h17.07c0.757,0,1.482-0.031,2.204-0.066l16.024,25.314h8.532     l-17.025-26.46C315.939,370.763,316.112,370.731,316.269,370.684z M288.974,365.347v-23.648h18.316     c4.737,0,8.385,0.918,10.933,2.754c2.548,1.841,3.824,4.683,3.824,8.537c0,4.031-1.262,7.099-3.78,9.2     c-2.518,2.106-6.058,3.157-10.624,3.157H288.974z"></path>
			<polygon style="fill:#1D2446;" points="353.521,335.033 345.96,335.033 345.96,397.267 388.818,397.267 388.818,390.601      353.521,390.601    "></polygon>
			<path style="fill:#1D2446;" d="M418.696,335.033l-25.16,62.235h7.914l5.952-15.116h31.439l5.903,15.116h8.272l-25.165-62.235     H418.696z M410.027,375.485l13.023-33.074h0.27l12.917,33.074H410.027z"></path>
			<polygon style="fill:#1D2446;" points="510.445,383.222 510.269,383.222 470.44,335.033 463.768,335.033 463.768,397.267      471.24,397.267 471.24,348.013 471.417,348.013 511.957,397.267 517.917,397.267 517.917,335.033 510.445,335.033    "></polygon>
			<path style="fill:#1D2446;" d="M586.421,349.481c-2.641-4.654-6.343-8.228-11.115-10.717c-4.772-2.489-10.388-3.731-16.849-3.731     h-22.141v62.235h21.341c6.696,0,12.489-1.247,17.379-3.736c4.895-2.489,8.67-6.058,11.34-10.712     c2.666-4.654,4.001-10.182,4.001-16.583C590.378,359.716,589.057,354.135,586.421,349.481z M579.749,379.309     c-1.924,3.613-4.713,6.402-8.356,8.356c-3.648,1.959-8.046,2.936-13.201,2.936h-14.315v-48.901h14.315     c5.273,0,9.72,0.947,13.334,2.847c3.613,1.895,6.372,4.664,8.267,8.311c1.9,3.643,2.847,8.105,2.847,13.378     C582.641,371.337,581.679,375.691,579.749,379.309z"></path>
		</g>
		<g>
			<path style="fill:#1D2446;" d="M19.76,199.894V59.27h77.544c9.91,0,18.147,1.677,24.709,5.022     c6.562,3.35,11.518,7.97,14.866,13.86c3.347,5.895,5.022,12.526,5.022,19.888c0,5.361-1.003,10.618-3.011,15.773     c-2.011,5.155-5.493,9.613-10.447,13.36v0.402c5.756,2.276,10.378,6.023,13.86,11.246c3.482,5.223,5.223,10.981,5.223,17.279     c0,8.573-1.807,16.136-5.424,22.698c-3.615,6.562-8.973,11.722-16.07,15.469c-7.102,3.752-15.94,5.626-26.519,5.626H19.76z      M60.34,115.319h29.732c4.419,0,7.835-1.035,10.246-3.114c2.411-2.075,3.617-5.258,3.617-9.544c0-4.282-1.275-7.43-3.818-9.441     c-2.545-2.006-6.697-3.011-12.455-3.011H60.34V115.319z M60.34,167.352h28.327c5.756,0,10.111-0.937,13.056-2.815     c2.945-1.874,4.421-5.287,4.421-10.246c0-4.551-1.175-7.901-3.517-10.045c-2.344-2.143-5.996-3.213-10.95-3.213H60.34V167.352z"></path>
			<path style="fill:#1D2446;" d="M203.376,200.095L148.932,59.27h44.198l33.349,94.821h0.802l31.944-94.821h44.396l-55.648,140.826     H203.376z"></path>
			<path style="fill:#1D2446;" d="M319.691,199.894V59.27h36.162l57.656,71.72h0.402V59.27h40.178v140.625h-34.354l-59.262-73.927     h-0.402v73.927H319.691z"></path>
			<path style="fill:#1D2446;" d="M478.796,199.894V59.27h40.581v105.066h66.695v35.558H478.796z"></path>
		</g>
		<g>
			<polygon style="fill:#E30613;" points="585.887,0 543.275,0 602.371,59.098 543.272,118.194 585.889,118.194 644.987,59.098         "></polygon>
			<polygon style="fill:#0086FF;" points="655.166,0 612.554,0 671.65,59.098 612.551,118.194 655.168,118.194 714.266,59.098         "></polygon>
		</g>
	</g>
	<g>
		<g>
			<path style="fill:#1D2446;" d="M1347.903,199.894V59.27h77.544c9.91,0,18.147,1.677,24.709,5.022     c6.562,3.35,11.518,7.97,14.866,13.86c3.347,5.895,5.022,12.526,5.022,19.888c0,5.361-1.003,10.618-3.011,15.773     c-2.011,5.155-5.493,9.613-10.447,13.36v0.402c5.755,2.276,10.378,6.023,13.86,11.246c3.482,5.223,5.223,10.981,5.223,17.279     c0,8.573-1.807,16.136-5.424,22.698c-3.615,6.562-8.973,11.722-16.07,15.469c-7.102,3.752-15.94,5.626-26.519,5.626H1347.903z      M1388.483,115.319h29.732c4.419,0,7.835-1.035,10.246-3.114c2.411-2.075,3.617-5.258,3.617-9.544     c0-4.282-1.275-7.43-3.818-9.441c-2.546-2.006-6.697-3.011-12.455-3.011h-27.321V115.319z M1388.483,167.352h28.326     c5.756,0,10.111-0.937,13.056-2.815c2.945-1.874,4.421-5.287,4.421-10.246c0-4.551-1.175-7.901-3.517-10.045     c-2.344-2.143-5.996-3.213-10.949-3.213h-31.338V167.352z"></path>
			<path style="fill:#1D2446;" d="M1531.519,200.095L1477.075,59.27h44.198l33.349,94.821h0.802l31.944-94.821h44.396     l-55.648,140.826H1531.519z"></path>
			<path style="fill:#1D2446;" d="M1647.834,199.894V59.27h36.162l57.656,71.72h0.402V59.27h40.178v140.625h-34.354l-59.262-73.927     h-0.402v73.927H1647.834z"></path>
			<path style="fill:#1D2446;" d="M1806.939,199.894V59.27h40.581v105.066h66.695v35.558H1806.939z"></path>
		</g>
		<g>
			<polygon style="fill:#E30613;" points="1914.03,0 1871.418,0 1930.514,59.098 1871.415,118.194 1914.032,118.194 1973.13,59.098         "></polygon>
			<polygon style="fill:#0086FF;" points="1983.309,0 1940.698,0 1999.793,59.098 1940.694,118.194 1983.311,118.194      2042.409,59.098    "></polygon>
		</g>
		<g>
			<polygon style="fill:#1D2446;" points="1245.069,348.104 1245.069,264.748 1235.063,264.748 1235.063,329.289 1234.826,329.289      1181.477,264.748 1172.547,264.748 1172.547,348.104 1182.548,348.104 1182.548,282.133 1182.786,282.133 1237.088,348.104         "></polygon>
			<polygon style="fill:#1D2446;" points="1328.542,339.174 1277.577,339.174 1277.577,309.879 1322.945,309.879 1322.945,300.948      1277.577,300.948 1277.577,273.678 1327.708,273.678 1327.708,264.748 1267.455,264.748 1267.455,348.104 1328.542,348.104         "></polygon>
			<path style="fill:#1D2446;" d="M1397.313,343.104c6.546-3.334,11.61-8.116,15.181-14.347c3.571-6.231,5.359-13.635,5.359-22.212     c0-8.732-1.769-16.213-5.301-22.444c-3.532-6.231-8.494-11.019-14.885-14.352c-6.391-3.334-13.911-5-22.565-5h-29.649v83.356     h28.578C1382.999,348.104,1390.762,346.437,1397.313,343.104z M1355.574,273.678h19.173c7.065,0,13.015,1.274,17.86,3.813     c4.841,2.539,8.533,6.251,11.077,11.135c2.539,4.879,3.809,10.854,3.809,17.918c0,6.832-1.294,12.666-3.872,17.507     c-2.578,4.841-6.309,8.572-11.193,11.193c-4.879,2.621-10.776,3.93-17.681,3.93h-19.173V273.678z"></path>
			<polygon style="fill:#1D2446;" points="1497.042,339.174 1446.073,339.174 1446.073,309.879 1491.445,309.879 1491.445,300.948      1446.073,300.948 1446.073,273.678 1496.208,273.678 1496.208,264.748 1435.95,264.748 1435.95,348.104 1497.042,348.104    "></polygon>
			<path style="fill:#1D2446;" d="M1524.075,314.288h22.861c1.013,0,1.984-0.042,2.952-0.088l21.465,33.904h11.43l-22.809-35.437     c0.216-0.06,0.448-0.104,0.66-0.167c3.968-1.192,7.283-2.878,9.943-5.059c2.66-2.185,4.661-4.865,6.013-8.039     c1.347-3.174,2.025-6.711,2.025-10.602c0-5.238-1.211-9.642-3.634-13.218c-2.423-3.571-5.795-6.27-10.122-8.097     c-4.327-1.822-9.429-2.738-15.302-2.738h-35.604v83.356h10.122V314.288z M1524.075,273.678h24.533     c6.347,0,11.232,1.231,14.643,3.692c3.416,2.461,5.122,6.275,5.122,11.43c0,5.403-1.686,9.512-5.059,12.327     c-3.377,2.82-8.121,4.225-14.231,4.225h-25.007V273.678z"></path>
			<polygon style="fill:#1D2446;" points="1655.541,339.174 1608.264,339.174 1608.264,264.748 1598.142,264.748 1598.142,348.104      1655.541,348.104    "></polygon>
			<path style="fill:#1D2446;" d="M1739.251,348.104l-33.7-83.356h-12.264l-33.7,83.356h10.597l7.973-20.244h42.114l7.908,20.244     H1739.251z M1681.675,318.93l17.447-44.297h0.358l17.303,44.297H1681.675z"></path>
			<polygon style="fill:#1D2446;" points="1761.4,282.133 1761.637,282.133 1815.94,348.104 1823.921,348.104 1823.921,264.748      1813.915,264.748 1813.915,329.289 1813.677,329.289 1760.329,264.748 1751.399,264.748 1751.399,348.104 1761.4,348.104    "></polygon>
			<path style="fill:#1D2446;" d="M1898.167,343.104c6.546-3.334,11.61-8.116,15.181-14.347c3.571-6.231,5.359-13.635,5.359-22.212     c0-8.732-1.769-16.213-5.301-22.444c-3.532-6.231-8.494-11.019-14.885-14.352c-6.391-3.334-13.911-5-22.565-5h-29.649v83.356     h28.578C1883.854,348.104,1891.616,346.437,1898.167,343.104z M1856.429,273.678h19.173c7.065,0,13.015,1.274,17.86,3.813     c4.841,2.539,8.533,6.251,11.077,11.135c2.539,4.879,3.809,10.854,3.809,17.918c0,6.832-1.294,12.666-3.872,17.507     c-2.578,4.841-6.309,8.572-11.193,11.193c-4.879,2.621-10.776,3.93-17.681,3.93h-19.173V273.678z"></path>
			<polygon style="fill:#1D2446;" points="1232.8,466.154 1232.442,466.154 1203.626,393.753 1192.433,393.753 1226.37,477.705      1238.159,477.705 1272.218,393.753 1261.262,393.753    "></polygon>
			<path style="fill:#1D2446;" d="M1337.651,398.041c-6.231-3.654-13.475-5.48-21.732-5.48c-8.174,0-15.38,1.807-21.611,5.417     c-6.236,3.615-11.115,8.654-14.648,15.128c-3.532,6.469-5.301,13.911-5.301,22.328c0,8.412,1.744,15.835,5.243,22.265     c3.489,6.43,8.354,11.474,14.585,15.127c6.231,3.649,13.475,5.475,21.732,5.475c8.174,0,15.379-1.827,21.616-5.475     c6.231-3.653,11.111-8.698,14.648-15.127c3.527-6.43,5.296-13.853,5.296-22.265c0-8.417-1.744-15.84-5.238-22.27     C1348.747,406.734,1343.882,401.695,1337.651,398.041z M1343.189,453.115c-2.621,5.044-6.27,8.954-10.956,11.731     c-4.686,2.781-10.122,4.167-16.315,4.167s-11.629-1.386-16.315-4.167c-4.686-2.776-8.334-6.687-10.956-11.731     c-2.617-5.039-3.93-10.936-3.93-17.681c0-6.827,1.328-12.744,3.993-17.744c2.655-5,6.328-8.891,11.014-11.673     c4.681-2.776,10.078-4.167,16.193-4.167c6.193,0,11.629,1.391,16.315,4.167c4.686,2.781,8.334,6.672,10.956,11.673     c2.621,5.001,3.93,10.917,3.93,17.744C1347.119,442.179,1345.811,448.076,1343.189,453.115z"></path>
			<path style="fill:#1D2446;" d="M1391.237,397.978c-6.231,3.615-11.115,8.654-14.648,15.128     c-3.532,6.469-5.296,13.911-5.296,22.328c0,8.412,1.744,15.835,5.238,22.265c3.494,6.43,8.354,11.474,14.59,15.127     c6.231,3.649,13.47,5.475,21.732,5.475c8.174,0,15.379-1.827,21.611-5.475c6.231-3.653,11.115-8.698,14.648-15.127     c3.532-6.43,5.301-13.853,5.301-22.265c0-8.417-1.749-15.84-5.243-22.27c-3.494-6.43-8.354-11.469-14.585-15.123     c-6.236-3.654-13.48-5.48-21.732-5.48C1404.673,392.561,1397.468,394.369,1391.237,397.978z M1440.122,417.69     c2.617,5.001,3.93,10.917,3.93,17.744c0,6.745-1.313,12.642-3.93,17.681c-2.621,5.044-6.275,8.954-10.956,11.731     c-4.686,2.781-10.122,4.167-16.314,4.167c-6.193,0-11.634-1.386-16.315-4.167c-4.686-2.776-8.339-6.687-10.956-11.731     c-2.621-5.039-3.93-10.936-3.93-17.681c0-6.827,1.328-12.744,3.988-17.744c2.66-5,6.328-8.891,11.014-11.673     c4.686-2.776,10.083-4.167,16.198-4.167c6.192,0,11.629,1.391,16.314,4.167C1433.848,408.798,1437.501,412.689,1440.122,417.69z"></path>
			<path style="fill:#1D2446;" d="M1519.19,441.505c3.968-1.192,7.283-2.878,9.943-5.059c2.66-2.185,4.666-4.865,6.013-8.039     c1.352-3.174,2.025-6.711,2.025-10.602c0-5.238-1.211-9.642-3.629-13.218c-2.423-3.571-5.8-6.27-10.122-8.097     c-4.332-1.822-9.429-2.738-15.302-2.738h-35.609v83.356h10.122v-33.816h22.866c1.013,0,1.984-0.042,2.951-0.088l21.46,33.904     h11.43l-22.805-35.438C1518.748,441.611,1518.979,441.568,1519.19,441.505z M1482.632,434.358v-31.675h24.532     c6.352,0,11.232,1.231,14.648,3.692c3.411,2.461,5.122,6.275,5.122,11.43c0,5.403-1.691,9.512-5.063,12.327     c-3.372,2.82-8.116,4.225-14.231,4.225H1482.632z"></path>
			<path style="fill:#1D2446;" d="M1615.227,398.041c-6.231-3.654-13.475-5.48-21.732-5.48c-8.174,0-15.379,1.807-21.611,5.417     c-6.236,3.615-11.115,8.654-14.648,15.128c-3.532,6.469-5.301,13.911-5.301,22.328c0,8.412,1.744,15.835,5.243,22.265     c3.489,6.43,8.354,11.474,14.585,15.127c6.231,3.649,13.475,5.475,21.732,5.475c8.174,0,15.379-1.827,21.615-5.475     c6.231-3.653,11.111-8.698,14.648-15.127c3.527-6.43,5.296-13.853,5.296-22.265c0-8.417-1.744-15.84-5.238-22.27     C1626.323,406.734,1621.458,401.695,1615.227,398.041z M1620.766,453.115c-2.621,5.044-6.27,8.954-10.956,11.731     c-4.686,2.781-10.122,4.167-16.315,4.167c-6.193,0-11.629-1.386-16.315-4.167c-4.686-2.776-8.334-6.687-10.956-11.731     c-2.616-5.039-3.93-10.936-3.93-17.681c0-6.827,1.328-12.744,3.993-17.744c2.655-5,6.328-8.891,11.014-11.673     c4.681-2.776,10.078-4.167,16.193-4.167c6.192,0,11.629,1.391,16.315,4.167c4.686,2.781,8.334,6.672,10.956,11.673     c2.621,5.001,3.93,10.917,3.93,17.744C1624.695,442.179,1623.387,448.076,1620.766,453.115z"></path>
			<path style="fill:#1D2446;" d="M1703.23,396.849c-4.327-2.064-9.546-3.096-15.661-3.096h-34.412v83.356h10.122l-0.121-28.816     h24.295c6.033,0,11.232-1.134,15.598-3.397c4.366-2.263,7.719-5.495,10.064-9.705c2.34-4.206,3.513-9.168,3.513-14.885     c0-5.713-1.153-10.534-3.455-14.464C1710.871,401.913,1707.557,398.914,1703.23,396.849z M1701.089,434.537     c-3.455,3.217-8.358,4.826-14.706,4.826h-23.103v-36.68h23.103c6.348,0,11.251,1.41,14.706,4.23     c3.45,2.815,5.18,7.365,5.18,13.635C1706.268,426.659,1704.538,431.325,1701.089,434.537z"></path>
			<polygon style="fill:#1D2446;" points="1824.158,402.683 1824.158,393.753 1763.9,393.753 1763.9,477.109 1824.991,477.109      1824.991,468.179 1774.022,468.179 1774.022,438.884 1819.395,438.884 1819.395,429.954 1774.022,429.954 1774.022,402.683         "></polygon>
			<polygon style="fill:#1D2446;" points="1904.418,458.295 1904.181,458.295 1850.832,393.753 1841.902,393.753 1841.902,477.109      1851.903,477.109 1851.903,411.139 1852.141,411.139 1906.443,477.109 1914.424,477.109 1914.424,393.753 1904.418,393.753         "></polygon>
			<polygon style="fill:#1D2446;" points="1407.135,595.159 1406.781,595.159 1377.96,522.758 1366.767,522.758 1400.705,606.711      1412.494,606.711 1446.552,522.758 1435.597,522.758    "></polygon>
			<path style="fill:#1D2446;" d="M1511.99,527.047c-6.236-3.653-13.48-5.48-21.732-5.48c-8.179,0-15.384,1.807-21.616,5.417     c-6.231,3.615-11.115,8.654-14.648,15.128c-3.532,6.469-5.296,13.911-5.296,22.328c0,8.412,1.744,15.835,5.238,22.265     c3.494,6.43,8.354,11.474,14.59,15.127c6.231,3.649,13.47,5.475,21.732,5.475c8.174,0,15.379-1.827,21.611-5.475     c6.231-3.653,11.115-8.698,14.648-15.127c3.532-6.43,5.301-13.853,5.301-22.265c0-8.417-1.749-15.84-5.243-22.27     C1523.081,535.739,1518.221,530.7,1511.99,527.047z M1517.528,582.12c-2.621,5.044-6.275,8.954-10.956,11.731     c-4.686,2.781-10.122,4.167-16.315,4.167c-6.193,0-11.634-1.386-16.315-4.167c-4.686-2.776-8.339-6.687-10.956-11.731     c-2.621-5.039-3.93-10.936-3.93-17.681c0-6.827,1.328-12.744,3.988-17.744c2.66-5.001,6.328-8.891,11.014-11.673     c4.686-2.776,10.083-4.167,16.198-4.167c6.192,0,11.629,1.391,16.315,4.167c4.681,2.781,8.334,6.672,10.956,11.673     c2.617,5,3.93,10.917,3.93,17.744C1521.458,571.184,1520.145,577.081,1517.528,582.12z"></path>
			<path style="fill:#1D2446;" d="M1608.923,527.047c-6.236-3.653-13.48-5.48-21.732-5.48c-8.179,0-15.384,1.807-21.615,5.417     c-6.231,3.615-11.115,8.654-14.648,15.128c-3.532,6.469-5.296,13.911-5.296,22.328c0,8.412,1.744,15.835,5.238,22.265     c3.494,6.43,8.354,11.474,14.59,15.127c6.231,3.649,13.47,5.475,21.732,5.475c8.174,0,15.379-1.827,21.611-5.475     c6.231-3.653,11.115-8.698,14.648-15.127c3.532-6.43,5.301-13.853,5.301-22.265c0-8.417-1.749-15.84-5.243-22.27     C1620.014,535.739,1615.155,530.7,1608.923,527.047z M1614.462,582.12c-2.621,5.044-6.275,8.954-10.956,11.731     c-4.686,2.781-10.122,4.167-16.315,4.167c-6.192,0-11.634-1.386-16.315-4.167c-4.686-2.776-8.339-6.687-10.955-11.731     c-2.621-5.039-3.93-10.936-3.93-17.681c0-6.827,1.328-12.744,3.988-17.744c2.66-5.001,6.328-8.891,11.014-11.673     c4.686-2.776,10.083-4.167,16.198-4.167c6.193,0,11.629,1.391,16.315,4.167c4.681,2.781,8.334,6.672,10.956,11.673     c2.616,5,3.93,10.917,3.93,17.744C1618.391,571.184,1617.078,577.081,1614.462,582.12z"></path>
			<path style="fill:#1D2446;" d="M1693.53,570.51c3.969-1.192,7.283-2.878,9.943-5.059c2.66-2.185,4.666-4.865,6.013-8.039     c1.352-3.174,2.025-6.711,2.025-10.602c0-5.238-1.211-9.642-3.629-13.218c-2.423-3.571-5.8-6.27-10.122-8.097     c-4.332-1.822-9.429-2.738-15.302-2.738h-35.609v83.356h10.122v-33.816h22.866c1.013,0,1.984-0.042,2.951-0.088l21.46,33.904     h11.43l-22.805-35.438C1693.087,570.617,1693.319,570.574,1693.53,570.51z M1656.971,563.363v-31.675h24.532     c6.352,0,11.232,1.231,14.648,3.692c3.411,2.461,5.122,6.275,5.122,11.43c0,5.403-1.691,9.512-5.063,12.327     c-3.373,2.82-8.116,4.225-14.231,4.225H1656.971z"></path>
			<path style="fill:#1D2446;" d="M1788.675,571.223c0,9.609-2.142,16.436-6.43,20.487c-4.288,4.046-10.398,6.071-18.34,6.071     c-7.782,0-13.873-2.025-18.277-6.071c-4.405-4.051-6.609-10.878-6.609-20.487v-48.464h-10.001v50.373     c0,7.699,1.429,14.091,4.283,19.169c2.859,5.083,6.89,8.857,12.089,11.314c5.199,2.461,11.29,3.692,18.277,3.692     c6.987,0,13.058-1.25,18.219-3.75c5.16-2.5,9.192-6.27,12.089-11.314c2.898-5.039,4.346-11.411,4.346-19.11v-50.373h-9.647     V571.223z"></path>
			<rect x="1818.562" y="522.758" style="fill:#1D2446;" width="10.122" height="83.356"></rect>
			<polygon style="fill:#1D2446;" points="1843.453,531.689 1874.056,531.689 1874.056,606.115 1884.057,606.115 1884.057,531.689      1914.424,531.689 1914.424,522.758 1843.453,522.758    "></polygon>
		</g>
	</g>
	<g>
		<g>
			<path style="fill:#1D2446;" d="M1456.586,986.058v-0.402c4.954-3.747,8.436-8.205,10.447-13.36     c2.008-5.155,3.011-10.412,3.011-15.773c0-7.362-1.675-13.993-5.022-19.888c-3.347-5.89-8.303-10.511-14.866-13.86     c-6.562-3.345-14.8-5.022-24.709-5.022h-77.544v140.625h79.754c10.579,0,19.417-1.874,26.519-5.626     c7.097-3.747,12.455-8.907,16.07-15.469c3.617-6.562,5.424-14.125,5.424-22.699c0-6.297-1.741-12.055-5.223-17.279     C1466.964,992.08,1462.341,988.333,1456.586,986.058z M1388.483,948.689h27.321c5.758,0,9.91,1.005,12.455,3.011     c2.543,2.011,3.818,5.16,3.818,9.441c0,4.287-1.207,7.47-3.617,9.544c-2.411,2.08-5.827,3.114-10.246,3.114h-29.732V948.689z      M1429.865,1023.019c-2.945,1.878-7.301,2.815-13.056,2.815h-28.327v-26.318h31.338c4.954,0,8.605,1.069,10.95,3.212     c2.342,2.143,3.517,5.493,3.517,10.045C1434.287,1017.731,1432.811,1021.145,1429.865,1023.019z"></path>
			<polygon style="fill:#1D2446;" points="1555.423,1012.572 1554.621,1012.572 1521.272,917.751 1477.075,917.751      1531.518,1058.577 1576.116,1058.577 1631.763,917.751 1587.367,917.751    "></polygon>
			<polygon style="fill:#1D2446;" points="1742.053,989.471 1741.651,989.471 1683.995,917.751 1647.833,917.751 1647.833,1058.376      1688.213,1058.376 1688.213,984.449 1688.615,984.449 1747.877,1058.376 1782.231,1058.376 1782.231,917.751 1742.053,917.751         "></polygon>
			<polygon style="fill:#1D2446;" points="1847.519,1022.818 1847.519,917.751 1806.938,917.751 1806.938,1058.376      1914.214,1058.376 1914.214,1022.818    "></polygon>
		</g>
		<g>
			<polygon style="fill:#E30613;" points="1914.03,858.481 1871.418,858.481 1930.514,917.579 1871.415,976.675 1914.032,976.675      1973.13,917.579    "></polygon>
			<polygon style="fill:#0086FF;" points="1983.309,858.481 1940.698,858.481 1999.793,917.579 1940.694,976.675 1983.311,976.675      2042.409,917.579    "></polygon>
		</g>
		<g>
			<polygon style="fill:#1D2446;" points="573.699,919.171 573.475,919.171 523.311,858.481 514.909,858.481 514.909,936.862      524.318,936.862 524.318,874.829 524.541,874.829 575.603,936.862 583.103,936.862 583.103,858.481 573.699,858.481    "></polygon>
			<polygon style="fill:#1D2446;" points="613.671,900.918 656.336,900.918 656.336,892.521 613.671,892.521 613.671,866.878      660.814,866.878 660.814,858.481 604.153,858.481 604.153,936.862 661.598,936.862 661.598,928.465 613.671,928.465    "></polygon>
			<path style="fill:#1D2446;" d="M726.26,932.16c6.16-3.139,10.917-7.632,14.279-13.496c3.358-5.859,5.039-12.821,5.039-20.881     c0-8.21-1.663-15.245-4.985-21.109c-3.322-5.859-7.987-10.356-13.997-13.491s-13.086-4.702-21.219-4.702h-27.884v78.381h26.877     C712.806,936.862,720.105,935.295,726.26,932.16z M687.013,866.878h18.029c6.643,0,12.243,1.194,16.794,3.581     c4.556,2.392,8.028,5.878,10.416,10.47c2.388,4.593,3.581,10.211,3.581,16.854c0,6.42-1.212,11.906-3.636,16.457     c-2.428,4.556-5.937,8.065-10.525,10.53c-4.593,2.46-10.138,3.695-16.63,3.695h-18.029V866.878z"></path>
			<polygon style="fill:#1D2446;" points="820.037,928.465 772.115,928.465 772.115,900.918 814.775,900.918 814.775,892.521      772.115,892.521 772.115,866.878 819.254,866.878 819.254,858.481 762.597,858.481 762.597,936.862 820.037,936.862    "></polygon>
			<path style="fill:#1D2446;" d="M845.457,905.06h21.501c0.962,0,1.801-0.122,2.719-0.166l20.235,31.969h10.748l-21.457-33.348     c0.199-0.055,0.435-0.073,0.63-0.132c3.732-1.121,6.848-2.706,9.349-4.761c2.501-2.05,4.388-4.57,5.654-7.559     c1.271-2.984,1.905-6.306,1.905-9.965c0-4.925-1.139-9.072-3.413-12.43c-2.278-3.358-5.454-5.896-9.518-7.613     c-4.073-1.718-8.867-2.574-14.389-2.574h-33.484v78.381h9.518V905.06z M845.457,866.878h23.068     c5.973,0,10.561,1.157,13.774,3.472c3.208,2.315,4.816,5.896,4.816,10.748c0,5.076-1.59,8.939-4.761,11.591     c-3.171,2.647-7.632,3.973-13.382,3.973h-23.515V866.878z"></path>
			<polygon style="fill:#1D2446;" points="969.077,928.465 924.622,928.465 924.622,858.481 915.104,858.481 915.104,936.862      969.077,936.862    "></polygon>
			<path style="fill:#1D2446;" d="M1047.796,936.862l-31.689-78.381h-11.536l-31.689,78.381h9.969l7.497-19.036h39.596l7.436,19.036     H1047.796z M993.655,909.429l16.406-41.658h0.333l16.272,41.658H993.655z"></path>
			<polygon style="fill:#1D2446;" points="1127.407,858.481 1118.003,858.481 1118.003,919.171 1117.78,919.171 1067.615,858.481      1059.214,858.481 1059.214,936.862 1068.622,936.862 1068.622,874.829 1068.845,874.829 1119.907,936.862 1127.407,936.862         "></polygon>
			<path style="fill:#1D2446;" d="M1197.223,932.16c6.16-3.139,10.917-7.632,14.279-13.496c3.358-5.859,5.039-12.821,5.039-20.881     c0-8.21-1.663-15.245-4.984-21.109c-3.322-5.859-7.987-10.356-13.997-13.491c-6.01-3.135-13.086-4.702-21.219-4.702h-27.884     v78.381h26.877C1183.768,936.862,1191.067,935.295,1197.223,932.16z M1157.975,866.878h18.029c6.643,0,12.243,1.194,16.794,3.581     c4.556,2.392,8.028,5.878,10.416,10.47s3.581,10.211,3.581,16.854c0,6.42-1.212,11.906-3.636,16.457     c-2.428,4.556-5.937,8.065-10.525,10.53c-4.593,2.46-10.138,3.695-16.63,3.695h-18.029V866.878z"></path>
			<polygon style="fill:#1D2446;" points="15.246,1047.867 14.908,1047.867 -12.188,979.787 -22.713,979.787 9.199,1058.729      20.285,1058.729 52.311,979.787 42.009,979.787    "></polygon>
			<path style="fill:#1D2446;" d="M113.839,983.815c-5.859-3.431-12.671-5.149-20.435-5.149c-7.686,0-14.462,1.699-20.321,5.094     c-5.864,3.399-10.452,8.137-13.774,14.22c-3.322,6.087-4.985,13.086-4.985,20.995c0,7.914,1.64,14.894,4.93,20.941     c3.281,6.046,7.855,10.789,13.714,14.22c5.859,3.435,12.671,5.153,20.435,5.153c7.686,0,14.462-1.718,20.325-5.153     c5.859-3.431,10.448-8.174,13.774-14.22c3.317-6.046,4.98-13.026,4.98-20.941c0-7.91-1.64-14.89-4.925-20.941     C124.272,991.989,119.698,987.25,113.839,983.815z M119.046,1035.606c-2.465,4.739-5.896,8.415-10.302,11.026     c-4.406,2.615-9.518,3.923-15.341,3.923s-10.935-1.308-15.341-3.923c-4.406-2.611-7.837-6.288-10.302-11.026     c-2.46-4.743-3.695-10.283-3.695-16.63c0-6.42,1.248-11.978,3.754-16.685c2.497-4.702,5.95-8.356,10.356-10.971     c4.401-2.611,9.477-3.918,15.227-3.918c5.823,0,10.935,1.308,15.341,3.918c4.406,2.615,7.837,6.269,10.302,10.971     c2.465,4.707,3.695,10.265,3.695,16.685C122.741,1025.322,121.511,1030.863,119.046,1035.606z"></path>
			<path style="fill:#1D2446;" d="M204.986,983.815c-5.859-3.431-12.671-5.149-20.435-5.149c-7.686,0-14.462,1.699-20.321,5.094     c-5.864,3.399-10.452,8.137-13.774,14.22c-3.322,6.087-4.985,13.086-4.985,20.995c0,7.914,1.64,14.894,4.93,20.941     c3.281,6.046,7.855,10.789,13.714,14.22c5.859,3.435,12.671,5.153,20.435,5.153c7.686,0,14.462-1.718,20.325-5.153     c5.859-3.431,10.448-8.174,13.774-14.22c3.317-6.046,4.98-13.026,4.98-20.941c0-7.91-1.64-14.89-4.925-20.941     C215.42,991.989,210.846,987.25,204.986,983.815z M210.194,1035.606c-2.465,4.739-5.896,8.415-10.302,11.026     c-4.406,2.615-9.518,3.923-15.341,3.923c-5.823,0-10.935-1.308-15.341-3.923c-4.406-2.611-7.837-6.288-10.302-11.026     c-2.46-4.743-3.695-10.283-3.695-16.63c0-6.42,1.248-11.978,3.754-16.685c2.497-4.702,5.95-8.356,10.356-10.971     c4.401-2.611,9.477-3.918,15.227-3.918c5.823,0,10.935,1.308,15.341,3.918c4.406,2.615,7.837,6.269,10.302,10.971     c2.465,4.707,3.695,10.265,3.695,16.685C213.889,1025.322,212.659,1030.863,210.194,1035.606z"></path>
			<path style="fill:#1D2446;" d="M284.548,1024.689c3.732-1.121,6.848-2.706,9.349-4.761c2.501-2.05,4.383-4.57,5.654-7.559     c1.267-2.984,1.905-6.306,1.905-9.965c0-4.925-1.139-9.071-3.417-12.429c-2.278-3.358-5.449-5.896-9.518-7.614     s-8.866-2.574-14.389-2.574h-33.479v78.381h9.518v-31.803h21.496c0.962,0,1.801-0.122,2.72-0.166l20.239,31.969h10.748     l-21.461-33.347C284.113,1024.765,284.351,1024.748,284.548,1024.689z M250.171,1017.968v-29.784h23.068     c5.969,0,10.561,1.157,13.769,3.472c3.212,2.315,4.816,5.896,4.816,10.748c0,5.076-1.586,8.939-4.757,11.591     c-3.176,2.647-7.636,3.973-13.382,3.973H250.171z"></path>
			<path style="fill:#1D2446;" d="M374.853,983.815c-5.864-3.431-12.676-5.149-20.435-5.149c-7.691,0-14.466,1.699-20.325,5.094     c-5.859,3.399-10.452,8.137-13.774,14.22c-3.322,6.087-4.98,13.086-4.98,20.995c0,7.914,1.64,14.894,4.925,20.941     s7.855,10.789,13.719,14.22c5.859,3.435,12.666,5.153,20.435,5.153c7.686,0,14.462-1.718,20.321-5.153     c5.859-3.431,10.452-8.174,13.774-14.22c3.322-6.046,4.985-13.026,4.985-20.941c0-7.91-1.645-14.89-4.93-20.941     C385.282,991.989,380.712,987.25,374.853,983.815z M380.061,1035.606c-2.465,4.739-5.9,8.415-10.302,11.026     c-4.406,2.615-9.518,3.923-15.341,3.923s-10.94-1.308-15.341-3.923c-4.406-2.611-7.841-6.288-10.302-11.026     c-2.465-4.743-3.695-10.283-3.695-16.63c0-6.42,1.248-11.978,3.75-16.685c2.501-4.702,5.95-8.356,10.356-10.971     c4.406-2.611,9.482-3.918,15.232-3.918c5.823,0,10.935,1.308,15.341,3.918c4.401,2.615,7.837,6.269,10.302,10.971     c2.46,4.707,3.695,10.265,3.695,16.685C383.756,1025.322,382.521,1030.863,380.061,1035.606z"></path>
			<path style="fill:#1D2446;" d="M457.604,982.698c-4.073-1.941-8.98-2.911-14.726-2.911h-32.363v78.381h9.518l-0.109-27.101     h22.841c5.673,0,10.561-1.062,14.671-3.189c4.105-2.128,7.258-5.167,9.459-9.126c2.201-3.955,3.303-8.62,3.303-13.997     c0-5.376-1.08-9.91-3.244-13.605C464.784,987.455,461.668,984.639,457.604,982.698z M455.585,1018.137     c-3.244,3.021-7.855,4.533-13.828,4.533h-21.724v-34.486h21.724c5.973,0,10.584,1.326,13.828,3.973     c3.249,2.652,4.871,6.926,4.871,12.821C460.456,1010.729,458.834,1015.112,455.585,1018.137z"></path>
			<polygon style="fill:#1D2446;" points="524.171,1022.224 566.831,1022.224 566.831,1013.827 524.171,1013.827 524.171,988.184      571.31,988.184 571.31,979.787 514.653,979.787 514.653,1058.168 572.093,1058.168 572.093,1049.771 524.171,1049.771    "></polygon>
			<polygon style="fill:#1D2446;" points="646.784,1040.476 646.561,1040.476 596.396,979.787 587.995,979.787 587.995,1058.168      597.403,1058.168 597.403,996.135 597.627,996.135 648.688,1058.168 656.188,1058.168 656.188,979.787 646.784,979.787    "></polygon>
			<polygon style="fill:#1D2446;" points="735.69,1047.867 735.353,1047.867 708.257,979.787 697.732,979.787 729.644,1058.729      740.729,1058.729 772.755,979.787 762.454,979.787    "></polygon>
			<path style="fill:#1D2446;" d="M834.283,983.815c-5.859-3.431-12.671-5.149-20.435-5.149c-7.686,0-14.462,1.699-20.321,5.094     c-5.864,3.399-10.452,8.137-13.774,14.22c-3.321,6.087-4.985,13.086-4.985,20.995c0,7.914,1.64,14.894,4.93,20.941     c3.281,6.046,7.855,10.789,13.714,14.22c5.859,3.435,12.671,5.153,20.435,5.153c7.686,0,14.462-1.718,20.326-5.153     c5.859-3.431,10.447-8.174,13.774-14.22c3.317-6.046,4.98-13.026,4.98-20.941c0-7.91-1.64-14.89-4.925-20.941     C844.717,991.989,840.142,987.25,834.283,983.815z M839.491,1035.606c-2.465,4.739-5.896,8.415-10.302,11.026     c-4.406,2.615-9.518,3.923-15.341,3.923s-10.935-1.308-15.341-3.923c-4.406-2.611-7.837-6.288-10.302-11.026     c-2.46-4.743-3.695-10.283-3.695-16.63c0-6.42,1.248-11.978,3.754-16.685c2.497-4.702,5.95-8.356,10.356-10.971     c4.401-2.611,9.477-3.918,15.227-3.918c5.823,0,10.935,1.308,15.341,3.918c4.406,2.615,7.837,6.269,10.302,10.971     c2.465,4.707,3.695,10.265,3.695,16.685C843.186,1025.322,841.956,1030.863,839.491,1035.606z"></path>
			<path style="fill:#1D2446;" d="M925.431,983.815c-5.859-3.431-12.671-5.149-20.435-5.149c-7.686,0-14.462,1.699-20.321,5.094     c-5.864,3.399-10.452,8.137-13.774,14.22c-3.322,6.087-4.985,13.086-4.985,20.995c0,7.914,1.64,14.894,4.93,20.941     c3.281,6.046,7.855,10.789,13.714,14.22c5.859,3.435,12.671,5.153,20.435,5.153c7.686,0,14.462-1.718,20.325-5.153     c5.859-3.431,10.448-8.174,13.774-14.22c3.317-6.046,4.98-13.026,4.98-20.941c0-7.91-1.64-14.89-4.925-20.941     C935.865,991.989,931.29,987.25,925.431,983.815z M930.639,1035.606c-2.465,4.739-5.896,8.415-10.302,11.026     c-4.406,2.615-9.518,3.923-15.341,3.923s-10.935-1.308-15.341-3.923c-4.406-2.611-7.837-6.288-10.302-11.026     c-2.46-4.743-3.695-10.283-3.695-16.63c0-6.42,1.248-11.978,3.754-16.685c2.497-4.702,5.95-8.356,10.356-10.971     c4.401-2.611,9.477-3.918,15.227-3.918c5.823,0,10.935,1.308,15.341,3.918c4.406,2.615,7.837,6.269,10.302,10.971     c2.465,4.707,3.695,10.265,3.695,16.685C934.334,1025.322,933.104,1030.863,930.639,1035.606z"></path>
			<path style="fill:#1D2446;" d="M1004.992,1024.689c3.732-1.121,6.848-2.706,9.349-4.761c2.501-2.05,4.383-4.57,5.654-7.559     c1.267-2.984,1.905-6.306,1.905-9.965c0-4.925-1.139-9.071-3.417-12.429s-5.449-5.896-9.518-7.614s-8.866-2.574-14.389-2.574     h-33.479v78.381h9.518v-31.803h21.496c0.962,0,1.801-0.122,2.719-0.166l20.24,31.969h10.748l-21.461-33.347     C1004.558,1024.765,1004.796,1024.748,1004.992,1024.689z M970.615,1017.968v-29.784h23.068c5.969,0,10.561,1.157,13.769,3.472     c3.212,2.315,4.816,5.896,4.816,10.748c0,5.076-1.586,8.939-4.757,11.591c-3.176,2.647-7.636,3.973-13.382,3.973H970.615z"></path>
			<path style="fill:#1D2446;" d="M1094.459,1025.359c0,9.035-2.018,15.45-6.046,19.259c-4.032,3.809-9.782,5.709-17.245,5.709     c-7.317,0-13.045-1.9-17.191-5.709c-4.142-3.809-6.215-10.224-6.215-19.259v-45.572h-9.404v47.362     c0,7.244,1.344,13.254,4.032,18.029c2.688,4.78,6.474,8.324,11.363,10.639c4.889,2.315,10.621,3.472,17.191,3.472     c6.566,0,12.279-1.18,17.132-3.531c4.852-2.351,8.639-5.896,11.363-10.634c2.725-4.743,4.087-10.73,4.087-17.974v-47.362h-9.067     V1025.359z"></path>
			<rect x="1122.562" y="979.787" style="fill:#1D2446;" width="9.518" height="78.381"></rect>
			<polygon style="fill:#1D2446;" points="1145.963,988.184 1174.74,988.184 1174.74,1058.168 1184.144,1058.168 1184.144,988.184      1212.698,988.184 1212.698,979.787 1145.963,979.787    "></polygon>
		</g>
		<g>
			<rect x="1271.555" y="858.481" style="fill:#1D2446;" width="9" height="199.882"></rect>
		</g>
	</g>
</g>
<g id="Layer_1">
</g>
</svg>
