<?xml version="1.0" encoding="UTF-8"?>
<svg width="497.74072" height="200" clip-rule="evenodd" fill-rule="evenodd" stroke-linejoin="round" stroke-miterlimit="1.41420996" version="1.1" viewBox="0 0 497.74072 200" xml:space="preserve" xmlns="http://www.w3.org/2000/svg"><g transform="matrix(.05074844 0 0 .05074844 0 195.41335)" fill-rule="nonzero" stroke-width="52.693222"><g fill="#032963"><path d="m0-2903.1512c0-527.5118 399.52-883.5072 924.44987-883.5072 412.32443 0 632.52943 233.0621 745.24023 458.431l-379.0223 179.2096c-56.3291-135.685-202.2893-248.3431-366.21793-248.3431-279.11599 0-476.29403 215.0937-476.29403 494.2097s197.17804 494.2624 476.29403 494.2624c163.92863 0 309.88883-112.7108 366.21793-248.3958l379.0223 179.2096c-110.1288 220.2577-332.9158 458.431-745.24023 458.431-524.92987 0-924.44987-358.5246-924.44987-883.5072"/><path d="m2688.8824-2769.9427c0-151.1242-79.356-199.76-204.8713-199.76-115.24 0-192.0668 64.0222-238.1733 120.3513v798.9873h-394.3561v-1708.0508h394.3561v622.2543c74.2447-87.0492 220.2576-181.7916 427.6582-181.7916 281.6979 0 409.7424 158.7646 409.7424 386.6628v880.9253h-394.356z"/><path d="m3370.1003-3287.2321h394.3034l0.053 156.2354c81.938-99.9063 238.1734-186.9555 386.7156-186.9555v381.5516c-23.0797-7.6405-56.3818-12.7518-97.3244-12.7518-102.4883 0-238.1734 43.5246-289.4439 115.1874v783.6536h-394.3561v-1236.9207z"/><path d="m4330.4343-3287.2321h394.3561v1236.9207h-394.3561zm-28.1909-338.0797c0-125.4625 99.9064-225.3162 225.3689-225.3162 125.5153 0 225.3689 99.8537 225.3689 225.3162 0 125.5153-99.8536 227.9509-225.3689 227.9509-125.4625 0-225.3689-102.4356-225.3689-227.9509"/><path d="m5070.4579-2480.5516c92.2131 81.938 289.3912 163.876 435.3514 163.876 117.822 0 166.4579-38.4134 166.4579-94.7425 0-58.911-94.7425-76.8267-212.5645-97.3243-209.9825-33.3021-507.0142-81.938-507.0142-402.0493 0-217.6757 186.9029-407.1605 530.0411-407.1605 207.4533 0 384.1336 66.6042 517.3421 163.8759l-151.1242 261.2003c-74.2447-71.7155-215.0937-135.6851-363.6359-135.6851-92.1604 0-156.1827 38.4134-156.1827 87.0492 0 53.7471 66.5515 64.0223 197.178 87.0492 209.9825 38.4134 522.4006 89.6312 522.4006 425.129 0 235.5913-207.4532 409.7424-563.3959 409.7424-220.2577 0-448.1558-74.2974-578.7296-189.5375z"/><path d="m6332.9875-2383.2799v-560.8139h-204.8713v-343.191h204.8713v-338.027h391.8268v338.027h250.9251v343.191h-250.9251v450.6851c0 71.7155 40.9426 125.5152 110.0761 125.5152 43.5773 0 87.1019-15.3864 99.9063-30.7728l76.8268 297.0844c-48.6886 46.1066-146.013 81.9379-291.9732 81.9379-250.9251 0-386.6628-125.4625-386.6628-363.6359"/><path d="m7495.558-2800.7156h509.5961c-10.2225-87.0492-74.2447-212.5644-256.089-212.5644-171.5691 0-238.1207 122.9333-253.5071 212.5644m253.5071-517.2893c366.2179 0 632.4767 268.8935 632.4767 688.8585v84.5199h-880.8726c23.0797 115.2401 130.6265 220.2576 314.9474 220.2576 110.1289 0 233.0621-43.5772 302.2483-105.0175l166.4052 245.8138c-122.8806 110.1289-327.8045 163.9286-517.2893 163.9286-381.5516 0-676.0541-248.3958-676.0541-650.4451 0-358.5247 271.5282-647.9158 658.1384-647.9158"/><path d="m9413.6439-2764.8315c0-151.1241-79.4087-204.8712-202.3419-204.8712-117.7694 0-194.5961 64.0222-240.65 120.3513v798.9873h-394.4087v-1236.9207h394.4087v151.1242c74.2448-87.0492 220.1523-181.8443 427.6055-181.8443 281.7507 0 409.7425 163.9286 409.7425 391.8268v875.814h-394.3561z"/></g><g fill="#00a5e8"><path d="m2227.5933-1648.4436h448.1558v1001.27659c0 202.28927 120.3513 348.30219 361.054 348.30219 235.5914 0 358.5246-146.01292 358.5246-348.30219v-1001.27659h445.5739v1014.08104c0 425.07621-258.6183 724.74256-804.0985 724.74256-550.5915 0-809.2098-302.19562-809.2098-722.16059z"/><path d="m4975.334-654.86022c0-151.12416-79.4087-204.87125-202.2893-204.87125-117.7694 0-194.5961 64.02227-240.7026 120.35132v798.987309h-394.4088v-1236.92066h394.4088v151.1242c74.2447-87.0492 220.2049-181.8443 427.6581-181.8443 281.698 0 409.6898 163.9286 409.6898 391.82673v875.814029h-394.356z"/><path d="m5656.6046-1177.2608h394.3561v1236.92065h-394.3561zm-28.2435-338.0797c0-125.4626 99.9063-225.3162 225.4216-225.3162 125.4625 0 225.3162 99.8536 225.3162 225.3162 0 125.5153-99.8537 227.9509-225.3162 227.9509-125.5153 0-225.4216-102.4356-225.4216-227.9509"/><path d="m6660.3578-690.74431h509.6488c-10.2225-87.0492-74.2974-212.56445-256.089-212.56445-171.5692 0-238.1734 122.93329-253.5598 212.56445m253.5598-517.28929c366.2179 0 632.4767 268.89345 632.4767 688.85842v84.51993h-880.8726c23.027 115.24007 130.5738 220.25766 314.9474 220.25766 110.1288 0 233.0621-43.57729 302.1956-105.01759l166.4579 245.813877c-122.9333 110.128831-327.8045 163.92861-517.2893 163.92861-381.6043 0-676.1067-248.395837-676.1067-650.445117 0-358.52468 271.5281-647.91579 658.191-647.91579"/></g></g></svg>
