<?xml version="1.0" encoding="UTF-8"?>
<svg width="786.83356" height="283" version="1.1" viewBox="0 0 786.83356 283" xmlns="http://www.w3.org/2000/svg"><path d="m-8.3168343e-6 141.5v-141.5h393.583328c233.85118 0 393.44803 0.36656 393.25003 0.90322-0.326 0.88335-5.3092 5.05813-56.3621 47.21845-89.76967 74.13328-108.97126 90.2419-108.97126 91.41828 0 1.21424 15.10224 14.29633 82.49996 71.46436 61.9752 52.56849 82.5245 70.19768 82.8334 71.06238 0.206 0.57673-150.03888 0.93331-393.25003 0.93331h-393.583328z" fill="#fff"/><path d="m0 141.5v-141.5h393.58333c233.85118 0 393.44803 0.36656 393.25003 0.90322-0.326 0.88335-5.3092 5.05813-56.3621 47.218452-89.76967 74.133278-108.97126 90.241898-108.97126 91.418278 0 1.21424 15.10224 14.29633 82.49996 71.46436 61.9752 52.56849 82.5245 70.19768 82.8334 71.06238 0.206 0.57673-150.03888 0.93331-393.25003 0.93331h-393.58333zm99.387056 100.52433c17.374514-2.84532 30.774704-15.10641 36.017564-32.95583 2.07458-7.06294 2.1075-23.68214 0.0625-31.53354-6.93407-26.6217-33.47403-40.21443-61.231624-31.36046-26.54731 8.46793-38.50284 44.56199-24.16707 72.961 8.76364 17.36066 28.14618 26.35612 49.31866 22.88883zm-15.39353-17.95867c-12.62138-3.83925-18.49152-13.70105-18.49152-31.06566 0-10.98872 1.86069-17.55798 6.60257-23.31071 8.29007-10.05729 24.36006-11.31386 34.177234-2.67243 7.08625 6.23757 9.16215 12.10501 9.19279 25.98314 0.0292 13.21522-1.72023 18.5717-8.25651 25.28032-5.41278 5.5555-15.620684 8.09834-23.224564 5.78534zm386.853944 15.90461c5.76519-2.48012 11.356-7.91619 13.8537-13.47027 1.61146-3.58335 1.83056-7.98422 2.10341-42.25l0.30459-38.25h-21.10917v35.45295c0 25.35705-0.34021 36.19962-1.19469 38.07499-3.20675 7.03806-15.84219 7.16899-19.44523 0.20149-0.86853-1.67955-1.81735-5.68076-2.1085-8.89158l-0.52936-5.83785h-18.72222v5.45078c0 16.81372 7.19146 27.06109 21.92935 31.24794 6.29683 1.78885 18.74992 0.92504 24.91812-1.72845zm-300.07491-17.72027 0.27256-18.25h13.57315c19.66127 0 21.44943 1.49804 23.38632 19.59212 0.58333 5.44933 1.51399 11.59538 2.06814 13.65788l1.00755 3.75h10.45986c5.75292 0 10.45986-0.17004 10.45986-0.37788 0-0.20783-0.63316-1.89533-1.40703-3.75-0.77386-1.85466-1.70891-7.64712-2.07788-12.87212-0.9894-14.01097-2.83152-19.66204-8.04115-24.66783l-4.33754-4.16783 3.27198-2.24199c12.46855-8.54359 13.03027-30.82089 1.02663-40.71531-7.04073-5.80356-9.74572-6.20704-41.61315-6.20704h-28.82186v95.06997l10.25-0.28499 10.25-0.28498zm0.22744-47.34172v-13.09171l14.75 0.34171c16.00221 0.37073 18.72385 1.19677 21.09587 6.4028 2.94095 6.45467 0.0273 16.39604-5.41143 18.46385-1.41055 0.53629-8.83534 0.97507-16.49954 0.97507h-13.9349zm84.69098 64.88987c0.44496-0.66101 2.39325-5.49851 4.32953-10.75l3.5205-9.54815h34.95899l7.21342 21 10.64329 0.28383c8.16374 0.21771 10.64329-0.0163 10.64329-1.0045 0-1.17916-4.58897-13.70583-26.75037-73.02144l-7.74963-20.74211-11.06999-8e-3 -11.06998-8e-3 -4.80386 12.75c-2.64213 7.0125-10.59813 27.85259-17.68002 46.31131-7.08188 18.45894-12.87615 34.09644-12.87615 34.75022 0 1.67109 19.56562 1.65865 20.69098-0.0132zm13.55938-37.04815c0.25538-0.6875 2.88399-8.1125 5.84135-16.5 2.95737-8.3875 5.6595-15.25 6.00475-15.25 0.85749 0 11.74064 31.31082 11.20959 32.25-0.23325 0.4125-5.62067 0.75-11.97206 0.75-8.81935 0-11.43825-0.29536-11.08363-1.25zm84.98559 6.70208 0.26405-31.54793 19.56933 31.29793 19.56933 31.29792h20.86134l0.51958-94.5h-19.99109l-0.26424 31.13771-0.26425 31.13771-19.49497-31.13771-19.49496-31.13771h-21.51007v46.83333c0 25.75834 0.3 47.13334 0.66667 47.5 0.36666 0.36667 4.86034 0.66667 9.98595 0.66667h9.31929zm221.76405 22.56509v-8.98283l-50.5-0.53434-0.5655-22.5h46.0655v-17h-46v-18.96506l49.5-0.53494 0.28893-8.75 0.28894-8.75h-71.07787v95h72zm-478.075264-100.98602c17.302524-2.50093 31.825104-16.67992 33.752534-32.953967l0.60131-5.07718h-20.13666l-1.65856 5.70525c-5.9968 20.628237-34.446844 20.302617-42.608464-0.48767-2.95155-7.51853-3.26558-23.16808-0.61704-30.74926 4.49857-12.876731 16.1104-19.498631 28.83778-16.445371 6.172414 1.48073 13.272464 7.823551 14.374594 12.841511l0.68868 3.13554h9.86153c5.42384 0 10.11217-0.40555 10.41852-0.90123 1.04702-1.69412-3.44289-13.591611-6.89334-18.266171-14.30022-19.37346-48.345134-20.93785-66.239244-3.04374-15.25198 15.251991-18.78196 42.459121-8.22279 63.376718 7.04878 13.96356 21.73671 22.79216 39.41641 23.69237 1.1 0.056 4.89113-0.31605 8.42474-0.8268zm97.575264-0.0784c14.35984-2.06701 26.37479-10.40455 32.77565-22.74403 4.52145-8.716367 5.9997-15.365877 5.90939-26.581807-0.12025-14.93645-3.98287-25.7368-12.65344-35.380561-16.06984-17.87352-49.15927-18.55241-66.31123-1.3605-17.53035 17.571181-18.93568 51.137841-2.98868 71.385608 5.79046 7.3521 16.93706 13.26257 27.76831 14.72412 7.88169 1.06355 7.81255 1.06374 15.5-0.0428zm-15.74092-18.31434c-5.25233-1.9607-8.2261-4.07308-11.17288-7.93651-9.17544-12.029607-8.26017-36.525367 1.77665-47.549217 5.47867-6.017441 15.7399-8.427561 24.74063-5.810971 6.65691 1.93521 11.2919 6.211751 14.80313 13.658291 2.34155 4.96591 2.59339 6.66529 2.59339 17.5 0 10.06192-0.33725 12.72859-2.08815 16.51122-2.37089 5.122067-7.16048 10.290307-11.72278 12.649567-4.24653 2.19596-14.27845 2.71405-18.92999 0.97762zm116.74092 15.00224c15.46202-4.13027 24.51321-13.82625 28.60302-30.640647 1.92896-7.93053 1.72921-27.17033-0.35298-34-3.79692-12.453981-11.04124-20.564761-22.46773-25.154981-5.48643-2.20399-7.01039-2.32342-29.78231-2.33393l-24-0.0111-0.25989 46.749991-0.25989 46.749997 21.75989-0.0119c14.95482-8e-3 23.32356-0.42956 26.75989-1.34748zm-35.26247-45.890647 0.26247-36.250001 9.99403-0.28915c11.82642-0.34217 22.20309 1.08382 27.48132 3.77658 5.41067 2.76031 10.81203 9.516871 12.7794 15.985721 2.62981 8.64701 2.24616 26.77556-0.72895 34.44566-3.0844 7.951837-8.78151 13.971937-15.65663 16.544247-4.5562 1.7047-7.8052 2.03694-19.91916 2.03694h-14.47496zm145.56473 41.999997-0.30226-5.25-26.25-0.2666-26.25-0.26661v-31.966787h49.10452l-0.60452-10.5-48.5-0.53556v-29.964441h52v-10h-65v93.999998h66.10452z" fill="#ee7500"/></svg>
