<?xml version="1.0" encoding="UTF-8" standalone="no"?>
<!-- Generator: Adobe Illustrator 27.8.1, SVG Export Plug-In . SVG Version: 6.00 Build 0) -->

<svg
   id="Layer_1"
   x="0px"
   y="0px"
   viewBox="0 0 564.13999 118.97"
   xml:space="preserve"
   version="1.1"
   sodipodi:docname="GroenLinks–PvdA_logo.svg"
   width="564.14001"
   height="118.97"
   inkscape:version="1.1.2 (b8e25be833, 2022-02-05)"
   xmlns:inkscape="http://www.inkscape.org/namespaces/inkscape"
   xmlns:sodipodi="http://sodipodi.sourceforge.net/DTD/sodipodi-0.dtd"
   xmlns="http://www.w3.org/2000/svg"
   xmlns:svg="http://www.w3.org/2000/svg"><defs
   id="defs39" /><sodipodi:namedview
   id="namedview37"
   pagecolor="#505050"
   bordercolor="#eeeeee"
   borderopacity="1"
   inkscape:pageshadow="0"
   inkscape:pageopacity="0"
   inkscape:pagecheckerboard="0"
   showgrid="false"
   fit-margin-top="0"
   fit-margin-left="0"
   fit-margin-right="0"
   fit-margin-bottom="0"
   inkscape:zoom="1.9285041"
   inkscape:cx="281.56538"
   inkscape:cy="59.63171"
   inkscape:window-width="1920"
   inkscape:window-height="1017"
   inkscape:window-x="-8"
   inkscape:window-y="-8"
   inkscape:window-maximized="1"
   inkscape:current-layer="Layer_1" /> <style
   type="text/css"
   id="style2"> .st0{fill:#01A747;} .st1{fill:#D81F27;} </style> <g
   id="g8"
   transform="translate(-15.93,-9.49)"> <g
   id="g6"> <path
   class="st0"
   d="m 69.34,35.67 h -22.6 v 11.85 h 7.51 c -0.85,4.1 -4.88,6.12 -8.82,6.12 -10.37,0 -12.46,-9.06 -12.46,-14.25 0,-3.79 -0.39,-16.11 11.3,-16.11 4.03,0 7.43,2.87 8.05,6.89 H 68.65 C 66.17,17.16 57.27,9.49 43.18,9.49 30.72,9.49 15.93,17.93 15.93,39 c 0,15.72 10.06,28.42 26.4,28.42 6.04,0 11.92,-2.09 15.71,-6.97 l 0.54,5.65 h 10.76 z m 56.79,18.59 c -0.62,-6.89 -3.48,-12 -8.13,-13.79 5.65,-2.09 8.28,-8.13 8.28,-13.86 0,-10.46 -8.36,-15.8 -18.04,-15.8 H 75.81 v 55.3 H 92.84 V 46.82 h 9.06 c 6.73,0 7.2,5.5 7.66,10.76 0.23,2.87 0.54,5.73 1.39,8.52 h 17.03 c -1.54,-2.55 -1.62,-9.13 -1.85,-11.84 z M 101.74,34.97 h -8.9 v -11 h 7.97 c 6.5,0 8.44,2.01 8.44,5.5 0,4.96 -4.33,5.5 -7.51,5.5 z M 156.97,9.49 c -16.8,0 -28.02,12.08 -28.02,28.96 0,16.88 11.22,28.96 28.02,28.96 16.8,0 28.02,-12.08 28.02,-28.96 0,-16.88 -11.23,-28.96 -28.02,-28.96 z m 0,44.15 c -4.33,0 -10.99,-2.87 -10.99,-15.18 0,-12.31 6.66,-15.18 10.99,-15.18 4.33,0 10.99,2.87 10.99,15.18 0,12.31 -6.66,15.18 -10.99,15.18 z m 79.26,-1.71 h -29.57 v -6.89 h 26.09 V 31.87 h -26.09 v -6.89 h 28.72 V 10.81 h -45.75 v 55.3 h 46.6 z M 258.21,35.9 h 0.15 l 16.95,30.2 h 16.57 V 10.8 h -16.1 v 29.58 h -0.15 L 259.53,10.8 h -17.42 v 55.3 h 16.1 z M 81.8,71.87 H 64.77 v 55.3 h 41.49 V 113 H 81.8 Z m 29.52,55.29 h 17.03 v -55.3 h -17.03 z m 56.38,-25.71 h -0.15 l -16.1,-29.58 h -17.42 v 55.3 h 16.1 v -30.2 h 0.15 l 16.95,30.2 h 16.57 v -55.3 h -16.1 z m 75.21,-29.58 h -20.98 l -15.17,19.05 h -0.15 V 71.87 h -17.03 v 55.3 h 17.03 v -16.34 l 4.72,-5.19 13.62,21.53 h 21.21 l -23.3,-33.69 z m 33.49,21.6 c -7.82,-2.17 -15.71,-3.02 -16.02,-6.97 0,-3.1 3.79,-3.72 6.12,-3.72 1.7,0 3.64,0.39 5.03,1.39 1.39,0.93 2.32,2.32 2.01,4.41 h 16.1 C 289.18,75.1 278.57,70.54 266.57,70.54 c -11.38,0 -22.29,5.5 -22.29,18.28 0,11.15 9.99,13.55 18.73,16.03 9.52,2.71 11.92,3.48 11.92,6.35 0,4.1 -4.26,5.03 -7.04,5.03 -3.17,0 -6.89,-0.7 -8.13,-4.03 -0.39,-1.01 -0.62,-2.25 -0.62,-3.64 h -17.03 c 0.15,17.66 18.04,19.9 24.31,19.9 12.31,0 25.54,-4.65 25.54,-19.05 0,-10.13 -7.74,-13.77 -15.56,-15.94 z"
   id="path4" /> </g> </g> <path
   class="st1"
   d="m 283.33,117.54 h 19.85 V 70.91 h 6.6 c 22.23,0 29.58,-12.64 29.58,-32.38 V 31.71 C 339.36,10.73 329.65,1.39 310.8,1.39 H 283.33 Z M 303.18,17.6 h 5.9 c 9.13,0 10.57,6.38 10.57,14.46 v 5.88 c 0,10.94 -1.9,16.85 -12.22,16.85 h -4.25 z"
   id="path10" /> <path
   class="st1"
   d="m 340.14,26.96 18.94,90.57 h 22.65 l 19.26,-90.57 h -19.84 c -2.92,19.47 -8.33,48.78 -10.04,68.71 H 370.9 C 368.55,75.39 364.32,45.5 361.42,26.96 Z"
   id="path12" /> <path
   class="st1"
   d="m 496.06,88.38 4.05,29.16 h 20.72 L 501.86,1.39 h -28.23 l -18.32,116.14 h 20.21 l 3.55,-29.16 h 16.99 z M 481.43,70.24 c 2.01,-15.78 5.25,-40.51 5.75,-50.03 h 0.72 c 1.35,13.39 3.77,32.37 5.95,50.03 z"
   id="path14" /> <g
   id="g20"
   transform="translate(-15.93,-9.49)"> <g
   id="g18"> <path
   class="st1"
   d="M 469.14,101.46 V 10.74 h -19.85 v 30.62 c -2.6,-4.86 -8.68,-6.29 -14.28,-6.29 -15.03,0 -21.84,15.78 -21.84,48.43 0,32.65 4.16,44.93 20.42,44.93 8.65,0 13.05,-3.91 16.09,-9.9 0.01,1.3 0.36,6.07 0.7,8.5 h 18.94 c -0.17,-4.86 -0.18,-11.17 -0.18,-25.57 z m -19.85,-5.92 c 0,9.49 -1.23,15.24 -7.82,15.24 -5.78,0 -8.43,-8.47 -8.43,-29.87 0,-21.4 2.84,-28.21 8.6,-28.21 6.78,0 7.66,5.55 7.66,15.08 v 27.76 z"
   id="path16" /> </g> </g> <path
   class="st1"
   d="m 564.14,28.12 -4.06,-7.94 -5.53,17.45 -14.39,10.06 -21.4,-6.09 -8.51,-13.19 5.1,15.49 21.98,11.24 19.01,-8.06 z"
   id="path22" /> <path
   class="st1"
   d="m 559.71,19.53 -6.92,-13.3 -15.59,-4.99 -18.93,7.9 20.09,-3.21 14.9,11.66 -0.46,19.23 z"
   id="path24" /> <path
   class="st1"
   d="m 550.76,36.8 1.57,-16.25 -9.53,-9.97 -11.23,3.35 14.3,5.15 2.12,14.04 -10.24,6 z"
   id="path26" /> <path
   class="st1"
   d="m 550.69,37.61 -10.68,9.16 -22.01,-7.85 -4.43,-19.3 14.21,-10.69 12.34,0.12 -19.44,8.17 -0.83,13.76 13.1,10.9 z"
   id="path28" /> <path
   class="st1"
   d="m 541.46,20.36 -3.08,-3.15 -2.42,1.07 1.06,2.08 z m -3.73,0.69 6.9,6.67 -3.18,-1.55 -6.46,5.91 -0.05,7.46 12.31,-8.38 -2.67,-9.97 z"
   id="path30" /> <path
   class="st1"
   d="m 535.63,19.07 -1.02,-0.83 -2.35,1.69 4.66,7.8 3.51,-2.01 -4.71,-2.59 z m 0.85,8.91 -2.7,1.55 -5.65,-6.95 2.6,-1.94 z m -3.04,1.73 -2.6,1.45 -5.08,-5.17 1.43,-2.58 z"
   id="path32" /> <path
   class="st1"
   d="m 531.76,35.23 -7.29,-10.34 9.29,-9.09 -10.68,2.16 -2.49,9.6 11.19,12.81 z"
   id="path34" /> </svg>
