<svg id="Laag_1" data-name="Laag 1" xmlns="http://www.w3.org/2000/svg" width="800" height="349.257" viewBox="0 0 800 349.257"><defs><style>.cls-1{fill:#dd0031;}.cls-2{fill:#39a835;}</style></defs><title>GroenLinks logo (variant)</title><path class="cls-1" d="M123.469,147.817c-10.877,13.977-27.747,20-45.054,20-46.862,0-75.729-36.437-75.729-81.484,0-60.41,42.392-84.612,78.14-84.612,40.426,0,65.963,21.978,73.081,59.283H107.023A23.176,23.176,0,0,0,83.962,41.255c-33.531,0-32.447,35.3-32.447,46.166,0,14.882,6.005,40.857,35.776,40.857,11.337,0,22.868-5.776,25.3-17.529H91.03V76.766H155.9v87.281H125.019Z" transform="translate(-2.686 -1.719)"/><path class="cls-1" d="M123.469,147.817c-10.877,13.977-27.747,20-45.054,20-46.862,0-75.729-36.437-75.729-81.484,0-60.41,42.392-84.612,78.14-84.612,40.426,0,65.963,21.978,73.081,59.283H107.023A23.176,23.176,0,0,0,83.962,41.255c-33.531,0-32.447,35.3-32.447,46.166,0,14.882,6.005,40.857,35.776,40.857,11.337,0,22.868-5.776,25.3-17.529H91.03V76.766H155.9v87.281H125.019Z" transform="translate(-2.686 -1.719)"/><path class="cls-1" d="M223.584,43.235h22.832c18.663,0,24.21,5.755,24.21,15.779,0,14.172-12.406,15.764-21.49,15.764H223.584ZM174.741,164.047h48.843V108.732h25.982c19.323,0,20.665,15.786,21.978,30.876.653,8.209,1.536,16.439,4,24.439H324.4c-4.441-7.354-4.657-26.19-5.353-34-1.772-19.761-9.966-34.42-23.312-39.522,16.223-5.991,23.793-23.3,23.793-39.773,0-29.957-24.016-45.269-51.756-45.269H174.741Z" transform="translate(-2.686 -1.719)"/><path class="cls-1" d="M223.584,43.235h22.832c18.663,0,24.21,5.755,24.21,15.779,0,14.172-12.406,15.764-21.49,15.764H223.584ZM174.741,164.047h48.843V108.732h25.982c19.323,0,20.665,15.786,21.978,30.876.653,8.209,1.536,16.439,4,24.439H324.4c-4.441-7.354-4.657-26.19-5.353-34-1.772-19.761-9.966-34.42-23.312-39.522,16.223-5.991,23.793-23.3,23.793-39.773,0-29.957-24.016-45.269-51.756-45.269H174.741Z" transform="translate(-2.686 -1.719)"/><path class="cls-1" d="M378.13,84.762c0-35.3,19.086-43.5,31.543-43.5,12.413,0,31.536,8.2,31.536,43.5,0,35.282-19.123,43.512-31.536,43.512-12.457,0-31.543-8.23-31.543-43.512m-48.836,0c0,48.42,32.174,83.048,80.379,83.048,48.147,0,80.371-34.628,80.371-83.048S457.82,1.722,409.673,1.722c-48.2,0-80.379,34.621-80.379,83.04" transform="translate(-2.686 -1.719)"/><path class="cls-1" d="M378.13,84.762c0-35.3,19.086-43.5,31.543-43.5,12.413,0,31.536,8.2,31.536,43.5,0,35.282-19.123,43.512-31.536,43.512-12.457,0-31.543-8.23-31.543-43.512m-48.836,0c0,48.42,32.174,83.048,80.379,83.048,48.147,0,80.371-34.628,80.371-83.048S457.82,1.722,409.673,1.722c-48.2,0-80.379,34.621-80.379,83.04" transform="translate(-2.686 -1.719)"/><polygon class="cls-1" points="503.538 3.761 503.538 162.337 637.187 162.337 637.187 121.674 552.395 121.674 552.395 101.891 627.191 101.891 627.191 64.185 552.395 64.185 552.395 44.402 634.704 44.402 634.704 3.761 503.538 3.761"/><polygon class="cls-1" points="503.538 3.761 503.538 162.337 637.187 162.337 637.187 121.674 552.395 121.674 552.395 101.891 627.191 101.891 627.191 64.185 552.395 64.185 552.395 44.402 634.704 44.402 634.704 3.761 503.538 3.761"/><polygon class="cls-1" points="751.268 3.761 751.268 88.588 750.787 88.588 704.606 3.761 654.629 3.761 654.629 162.337 700.846 162.337 700.846 75.687 701.305 75.687 749.94 162.337 797.448 162.337 797.448 3.761 751.268 3.761"/><polygon class="cls-1" points="751.268 3.761 751.268 88.588 750.787 88.588 704.606 3.761 654.629 3.761 654.629 162.337 700.846 162.337 700.846 75.687 701.305 75.687 749.94 162.337 797.448 162.337 797.448 3.761 751.268 3.761"/><polygon class="cls-2" points="139.788 186.923 139.788 345.499 258.835 345.499 258.835 304.836 188.645 304.836 188.645 186.923 139.788 186.923"/><rect class="cls-2" x="269.833" y="186.918" width="48.872" height="158.576"/><polygon class="cls-2" points="436.804 186.923 436.804 271.75 436.338 271.75 390.15 186.923 340.223 186.923 340.223 345.499 386.376 345.499 386.376 258.849 386.792 258.849 435.448 345.499 482.985 345.499 482.985 186.923 436.804 186.923"/><polygon class="cls-2" points="597.534 186.923 554.029 241.549 553.534 241.549 553.534 186.923 504.67 186.923 504.67 345.499 553.534 345.499 553.534 298.615 567.074 283.747 606.166 345.499 666.984 345.499 600.167 248.868 657.692 186.923 597.534 186.923"/><path class="cls-2" d="M708.524,293.909a29.431,29.431,0,0,0,1.808,10.433c3.552,9.551,14.221,11.538,23.3,11.538,7.994,0,20.235-2.662,20.235-14.429,0-8.2-6.931-10.405-34.248-18.219-25.071-7.1-53.7-13.977-53.7-45.972,0-36.631,31.314-52.373,63.919-52.373,34.463,0,64.851,13.059,66.185,51.691H749.868c.875-5.97-1.779-9.945-5.79-12.629-3.976-2.891-9.58-4-14.445-4-6.637,0-17.536,1.83-17.536,10.663.9,11.344,23.55,13.791,45.965,19.976,22.452,6.243,44.624,16.654,44.624,45.729,0,41.323-37.95,54.662-73.261,54.662-17.988,0-69.271-6.479-69.708-57.066Z" transform="translate(-2.686 -1.719)"/><path class="cls-2" d="M708.524,293.909a29.431,29.431,0,0,0,1.808,10.433c3.552,9.551,14.221,11.538,23.3,11.538,7.994,0,20.235-2.662,20.235-14.429,0-8.2-6.931-10.405-34.248-18.219-25.071-7.1-53.7-13.977-53.7-45.972,0-36.631,31.314-52.373,63.919-52.373,34.463,0,64.851,13.059,66.185,51.691H749.868c.875-5.97-1.779-9.945-5.79-12.629-3.976-2.891-9.58-4-14.445-4-6.637,0-17.536,1.83-17.536,10.663.9,11.344,23.55,13.791,45.965,19.976,22.452,6.243,44.624,16.654,44.624,45.729,0,41.323-37.95,54.662-73.261,54.662-17.988,0-69.271-6.479-69.708-57.066Z" transform="translate(-2.686 -1.719)"/></svg>