<?xml version="1.0" encoding="utf-8"?>
<!-- Generator: Adobe Illustrator 14.0.0, SVG Export Plug-In . SVG Version: 6.00 Build 43363)  -->
<!DOCTYPE svg PUBLIC "-//W3C//DTD SVG 1.1//EN" "http://www.w3.org/Graphics/SVG/1.1/DTD/svg11.dtd">
<svg version="1.1" id="Laag_1" xmlns="http://www.w3.org/2000/svg" xmlns:xlink="http://www.w3.org/1999/xlink" x="0px" y="0px"
	 width="660px" height="245px" viewBox="0 0 660 245" enable-background="new 0 0 660 245" xml:space="preserve">
<g id="XMLID_2_">
	<path id="XMLID_3_" fill="#0071CE" d="M154.8,119c-2.4-1.6-4.4-3.2-6.8-4.399c-2-1.2-4-3.2-6.4-4c0-0.4-0.399-0.4-0.8-0.801
		c-5.2-3.199-10-6.399-14.8-9.6c-3.2-2-6-4-9.2-6c-2.8-2-5.6-3.6-8.4-5.6c-3.6-2-6.8-4.4-10-6.801C96,80.2,93.6,79,91.6,77.4
		c-1.2-0.8-1.2-0.4-1.2,0.8c-1.199,7.2-2,14.4-3.199,21.6c-0.4,2.4-0.4,4.4,2.399,5.2l0,0c0.8,0.4,1.601,1.2,2.4,1.601
		c3.6,2.399,7.2,4.8,10.8,6.8c2.8,2,6,4,8.8,5.6c4,2.4,8,5.2,11.601,7.601c3.199,2,6,4,9.199,6c0.4,0.399,0.801,0,1.2,0
		c7.2-4.4,14.8-8.4,22-12.8C155.6,119.8,155.6,119.4,154.8,119z"/>
	<path id="XMLID_12_" fill="#0071CE" d="M148.8,99.8c-1.2-0.8-2-1.6-3.2-2c-5.2-3.6-10.8-6.8-16-10.399c-0.8-0.8-2-1.2-3.2-2
		c-4-3.2-8.399-5.601-12.8-8.4c-0.399-0.399-0.8-0.399-1.2-0.8c-3.199-2-6.399-4-9.6-6.4c-1.6-0.8-3.6-2-5.2-3.199
		C95.2,65,92.8,63.4,90.399,61.8C90,61.8,90,61,89.2,61.4c-0.4,0,0,0.399,0,1.2c0,2.8,0,5.6,0,8.399c0,0.8,0.399,1.601,1.199,2
		C93.2,75,96,76.601,99.2,78.601c1.199,0.8,2,1.2,3.199,2c3.2,2,6,4,9.2,5.6l0,0c0.4,0,0.4,0.4,0.8,0.4
		c5.601,3.6,10.801,7.2,16.4,10.8c1.2,0.8,2.4,1.6,3.6,2.399c5.2,3.601,10.801,6.801,16,10.4c3.2,2,6,4,9.2,6
		c1.601,1.2,2.8,1.2,4.4,0.4c2.399-1.2,5.2-2,7.6-3.2c-0.8-0.4-1.2-0.8-2-1.2C162,107.8,155.6,103.8,148.8,99.8z"/>
	<path id="XMLID_16_" fill="#0071CE" d="M118.8,130.2c-2.4-2-5.2-3.6-7.6-5.2c-2.4-1.6-4.4-3.2-6.801-4.399c-4-2.4-8-5.2-12.399-8
		c-2-1.2-3.601-2.4-5.2-3.601c-2.4-1.6-4.8-2.8-7.2-4.8c0.4,2.8,1.2,5.6,1.601,8c0.399,2,1.199,3.6,2.8,4.4c2,1.6,4.399,2.8,6.8,4
		c0,0,0,0,0.4,0c0.399,0,0,0,0.399,0C95.2,123,99.2,125.4,102.8,127.8c2.4,1.601,4.8,3.2,7.2,4.801l0,0c0,0,0,0,0.399,0
		c3.2,2.399,6.801,4.8,10.4,6.8c0.8,0.8,2,1.2,3.2,0.8c0.8-0.4,1.6-0.4,2.399-0.4c2-0.399,4.4-1.199,7.2-1.6
		c-4.399-2.8-8.399-5.2-12.399-8C120.399,130.601,119.2,130.601,118.8,130.2z"/>
	<path id="XMLID_19_" fill="#0071CE" d="M211.6,7.8c2-1.6,4-2.8,6-4c-2-0.399-4-0.8-5.6-1.199c-0.8,0-1.601-0.4-2.4-0.4
		C198,1.4,186.8,1.8,176,5.4c-5.2,2-10.4,4.399-14.8,7.6c-5.2,3.601-9.2,8-12.4,13.601c-0.4,0.8-0.8,0.8-1.2,0
		c-0.399-0.8-1.2-1.601-1.2-2.4c-1.199-3.6-1.199-6.8,1.2-10c1.2-1.6,2.4-2.399,4-4c-2.399,0-5.2,0-7.2,0.8
		c-7.6,1.601-14,5.2-20,9.601c-3.6,2.8-7.199,5.6-10.399,9.2c-1.601,1.6-2.4,3.6-3.601,5.199c-7.199-0.399-14.8,0-22,1.2
		C77.6,37.801,67.6,41.4,58,46.2c-8,4-15.2,9.2-22,15.2c-11.2,10-20,22-26,36c-6.4,14.4-9.2,29.6-8.8,45.2c0,6,0.8,12.4,2,18.4
		c3.199,14.399,8.8,27.6,17.6,39.6c3.2,4.4,6.4,8.4,10.4,12c1.6-2.8,3.199-5.6,4.399-8.4c-1.6,2.801-3.2,5.601-4.399,8.4
		c2.8,3.2,5.6,5.6,9.199,8c3.601,3.2,8,6,12,8.4c1.2,0.8,2.4,1.6,3.601,2c3.2,1.6,6.399,3.6,10,4.8c0,0,0.399,0,0.399,0.399
		c14,5.601,28,8,42.801,7.601c9.199-0.4,18-2,26.8-4.8c14-4.4,26-11.2,37.2-20.4c10.8-9.2,19.199-20,25.6-32.8
		c8-16.4,11.6-33.601,10.8-51.601c-0.399-8.399-2-16.8-4.399-25.2c-1.2-4-2.4-7.6-4.4-11.199c-1.2,1.199-2.4,2-4,3.199
		c1.2-1.199,2.4-2,4-3.199c-0.4-1.601-1.2-3.2-2-4.801c-1.2-1.6-2.4-3.199-3.6-4.399c-0.801,1.6-2,2.399-3.2,3.6
		c1.2-1.2,2-2.399,3.2-3.6c0-0.4,0.399-0.4,0.399-0.8c0,0.399-0.399,0.399-0.399,0.8c1.199,1.6,2.399,3.2,3.6,4.399
		c-0.8-2-1.6-4-3.2-5.6c0.8-2,1.2-4.4,1.2-6.4c0.8-7.199,4.8-12.399,10-16.8c3.2-2.399,6.8-4.8,10.4-6
		c0.8-0.399,1.199-0.399,0.399-1.2c-0.399-0.8-1.2-1.6-2-2.399c-4.8-4.4-10-4.8-15.6-3.601c-2,0-2.4,0.4-3.601,0
		c2.801-2,5.2-4,6.801-7.2c1.6-3.6,1.199-6.8-0.801-10c-2.8-5.199-3.6-10-0.8-15.199C203.6,14.601,207.2,11,211.6,7.8z
		 M191.2,104.601L191.2,104.601c3.6,8,5.6,16,6.399,24.399c2,19.2-1.2,37.2-10.399,54.4c-8.801,16.8-21.601,29.6-38,38.4
		c-9.2,5.199-19.2,8.8-30,10.399c-4.4,0.8-8.801,1.2-13.2,1.2c-11.601,0.4-23.2-1.6-34.4-5.6l0,0H71.2c-1.2-0.4-2.801-1.2-4-1.601
		c-2.801-1.2-5.601-2.399-8-4c-0.4-0.399-1.2-0.399-1.2-1.2l0,0c0.399-0.399,0.399-0.8,0.8-1.199c-0.4,0-0.8,0-0.8,0s0.399,0,0.8,0
		c0.4-0.4,0.4-0.4,0.8-1.2c4-4.8,7.601-9.601,11.601-14.4c2.399-3.2,5.199-6.8,8-10c2-2.399,4-4.8,5.6-7.2
		c4-5.199,8-10.399,12.4-15.6c0.399-0.4,0.399-0.4,0.8-0.8c4.399-5.601,8.8-10.8,12.8-16.4c2.4-3.2,4.8-6,7.2-8.8
		c0.399-0.8,0.399-1.2-0.4-1.601c-2.8-1.6-5.6-3.6-8-5.199c-4-2.4-7.6-5.2-11.6-7.601c0,0,0,0-0.4,0c0,0,0,0-0.399-0.399
		c-0.4-0.4-1.2-0.801-1.601-1.2c-4.399-2.8-8.8-6-13.6-8.8c-2-1.2-2-1.2-3.601,1.199C78,122.2,78,123,77.6,123.4
		c-2,3.6-4,7.6-6,11.2c-3.2,5.6-6,11.2-9.2,16.8c-2,3.6-3.6,6.8-5.199,10.4c-2.801,4.8-5.2,9.6-8,14.8c-2.801,5.2-5.2,10-8,14.8
		c0,0.4,0,0.4-0.4,0.8c-1.6,3.2-3.6,6-5.2,9.2c-0.399,0.4-0.8,1.2-1.2,1.6c-5.6-6-10.399-12.8-14-20c-4.8-9.199-8-19.199-9.6-29.6
		c-0.8-6-1.2-12-1.2-18.4c0.8-14.8,4.8-28.8,11.601-41.6C29.6,78.601,40.8,67,55.6,58.2c10.4-6,21.601-10,33.601-12
		c5.199-0.8,10-1.2,15.199-1.2c0.4-0.8,0.4-1.6,0.801-2.399c-0.4,0.8-0.4,1.6-0.801,2.399c-0.399,2.8-1.199,5.601-1.6,8.4
		c-0.4,2.399-0.4,5.2-0.4,7.6c0,2,0.4,2.8,2,3.601c1.2,0.8,2.801,1.6,4,2.399c0,0,0,0,0-0.399l0,0c0,0,0,0,0,0.399
		c0.4,0,0.4,0.4,0.801,0.4c5.199,3.6,10.8,6.8,16,10.399c2.8,2,5.6,3.601,8.399,5.601c1.2,0.8,2.4,1.6,3.601,2.399
		c4.399,2.801,9.199,5.601,13.6,8.801c3.2,2,6.8,4.399,10,6.8c0.4,0.399,0.8,0.399,1.2,0.399c7.6-0.8,14.8-2.399,22-5.6
		c1.2-0.4,2-1.2,3.2-1.6c1.199,2.399,2.399,4.8,3.6,7.199C191.2,103.4,191.2,104.2,191.2,104.601z"/>
	<polygon id="XMLID_20_" fill="#0071CE" points="326.8,3 247.199,3 247.199,244.2 427.199,244.2 427.199,177.801 326.8,177.801 	"/>
	<path id="XMLID_23_" fill="#0071CE" d="M561.199,3H448v241.2h79.6v-62.8h33.2c62.8,0,98.8-33.6,98.8-92.4C660,34.2,624,3,561.199,3
		z M557.199,121H528V63.4h29.199c17.2,0,27.2,10.399,27.2,28C584.399,110.2,574.399,121,557.199,121z"/>
</g>
</svg>
