<?xml version="1.0" standalone="no"?>
<!DOCTYPE svg PUBLIC "-//W3C//DTD SVG 20010904//EN"
 "http://www.w3.org/TR/2001/REC-SVG-20010904/DTD/svg10.dtd">
<svg version="1.0" xmlns="http://www.w3.org/2000/svg"
 width="442.000000pt" height="444.000000pt" viewBox="0 0 442.000000 444.000000"
 preserveAspectRatio="xMidYMid meet">

<g transform="translate(0.000000,444.000000) scale(0.100000,-0.100000)"
fill="#FF9600" stroke="none">
<path d="M3492 4368 c-8 -8 -12 -60 -12 -170 l0 -158 -158 0 c-110 0 -162 -4
-170 -12 -17 -17 -17 -499 0 -516 8 -8 60 -12 170 -12 l158 0 0 -159 c0 -122
3 -161 14 -170 9 -8 88 -11 267 -9 l254 3 5 165 5 165 165 5 165 5 3 254 c2
176 -1 258 -9 267 -8 10 -51 14 -168 16 l-156 3 -3 154 c-1 93 -7 160 -13 168
-16 18 -499 19 -517 1z"/>
<path d="M12 3758 c-9 -9 -12 -298 -12 -1240 l0 -1228 1870 0 1870 0 0 904 0
904 -130 4 c-126 3 -130 4 -157 31 -28 27 -28 30 -31 167 l-4 140 -134 0
c-134 0 -134 0 -166 29 l-33 29 -3 136 -4 136 -1527 0 c-1174 0 -1530 -3
-1539 -12z m1214 -1020 c202 -359 376 -666 386 -683 17 -29 18 -13 18 538 l0
567 -125 0 -125 0 0 115 0 115 365 0 365 0 0 -115 0 -115 -130 0 -130 0 0
-785 0 -786 -141 3 -141 3 -404 720 c-223 396 -411 731 -419 745 -12 22 -14
-57 -15 -597 l0 -623 125 0 125 0 0 -115 0 -115 -365 0 -365 0 0 115 0 115
125 0 125 0 0 660 0 660 -125 0 -125 0 0 115 0 115 304 0 303 0 369 -652z
m1702 535 l3 -113 -116 0 -115 0 0 -660 0 -660 285 0 285 0 0 275 0 275 115 0
115 0 0 -390 0 -390 -652 2 -653 3 0 110 0 110 113 3 112 3 0 659 0 659 -112
3 -113 3 -3 99 c-1 55 0 106 2 113 5 11 73 13 368 11 l363 -3 3 -112z"/>
</g>
<g transform="translate(0.000000,444.000000) scale(0.100000,-0.100000)"
fill="#47B91A" stroke="none">
<path d="M0 626 c0 -527 2 -596 16 -610 14 -14 196 -16 1858 -16 1525 0 1845
2 1855 13 7 10 11 189 11 608 l1 594 -1871 3 -1870 2 0 -594z m695 330 c78
-34 115 -90 115 -176 0 -45 -31 -112 -61 -135 -17 -12 -20 -19 -11 -22 33 -12
82 -67 98 -109 12 -31 15 -59 11 -96 -18 -147 -147 -203 -452 -196 l-120 3 -3
47 -3 47 48 3 48 3 3 278 2 277 -50 0 -50 0 0 51 0 51 193 -4 c154 -3 200 -8
232 -22z m825 -86 l0 -110 -45 0 -45 0 0 60 0 60 -160 0 -160 0 0 -110 0 -110
140 0 140 0 0 -45 0 -44 -137 -3 -138 -3 -3 -123 -3 -122 161 0 160 0 0 70 0
70 44 0 45 0 3 -116 c2 -64 1 -118 -1 -120 -2 -2 -143 -4 -313 -4 l-308 0 0
50 0 50 45 0 45 0 0 280 0 280 -45 0 -45 0 0 50 0 50 310 0 310 0 0 -110z
m685 -30 l0 -135 -47 -3 -48 -3 0 90 0 91 -75 0 -75 0 0 -279 0 -280 48 -3 47
-3 0 -45 0 -45 -152 -3 -153 -3 0 51 0 50 45 0 45 0 0 280 0 280 -75 0 -75 0
0 -91 0 -90 -47 3 -48 3 -3 124 c-1 69 0 131 2 138 4 11 65 13 308 11 l303 -3
0 -135z m675 30 l0 -110 -50 0 -50 0 0 60 0 60 -160 0 -161 0 3 -107 3 -108
138 -3 137 -3 0 -44 0 -44 -137 -3 -138 -3 0 -120 0 -120 158 -3 157 -3 0 71
0 70 50 0 51 0 -3 -117 -3 -118 -310 0 -310 0 -3 48 -3 47 50 0 51 0 0 280 0
280 -50 0 -50 0 0 50 0 50 315 0 315 0 0 -110z m532 77 c45 -22 61 -36 77 -71
42 -86 19 -196 -52 -247 -22 -16 -46 -29 -53 -29 -29 0 -22 -25 41 -150 l65
-130 46 0 45 0 -3 -47 -3 -48 -81 -3 -81 -3 -83 176 -84 175 -53 0 -53 0 0
-125 0 -125 51 0 50 0 -3 -47 -3 -48 -155 0 -155 0 -3 47 -3 47 51 3 51 3 2
277 2 277 -50 3 -50 3 -3 48 -3 49 218 -4 c215 -3 219 -3 275 -31z"/>
<path d="M480 774 l0 -106 81 4 c74 3 83 6 105 32 21 23 24 37 22 79 -3 46 -7
54 -37 74 -27 18 -48 23 -102 23 l-69 0 0 -106z"/>
<path d="M480 445 l0 -125 53 0 c136 2 197 40 197 124 0 85 -61 126 -187 126
l-63 0 0 -125z"/>
<path d="M3140 776 l0 -106 75 0 c88 0 147 20 164 56 19 41 13 90 -13 121 -23
27 -29 28 -125 31 l-101 4 0 -106z"/>
</g>
</svg>
