<?xml version="1.0" encoding="iso-8859-1"?>
<!-- Generator: Adobe Illustrator 19.2.0, SVG Export Plug-In . SVG Version: 6.00 Build 0)  -->
<svg version="1.1" id="Layer_1" xmlns="http://www.w3.org/2000/svg" xmlns:xlink="http://www.w3.org/1999/xlink" x="0px" y="0px"
	 viewBox="0 0 100 44.939" style="enable-background:new 0 0 100 44.939;" xml:space="preserve">
<g id="Layer_10">
	<g>
		<path style="fill:#E95D0F;" d="M17.468,17.595c-5.187-1.458-6.1-2.207-6.1-5.013c0-3.495,1.071-4.076,3.299-4.076
			c1.484,0,3.73,0.04,4.629,0.153l0.057,5.881c0,0.247,0.2,0.447,0.447,0.447h9.396c0.248,0,0.448-0.201,0.448-0.447V1.619
			c0-0.199-0.132-0.375-0.323-0.43C27.175,0.567,20.179,0,14.788,0C3.455,0,0,3.362,0,12.992c0,9.661,2.496,11.391,13.174,14.595
			c5.469,1.616,6.225,2.268,6.225,5.367c0,4.057-0.63,3.927-4.55,3.927c-1.118,0-2.973-0.146-3.955-0.268l-0.06-5.812
			c0-0.247-0.201-0.447-0.448-0.447h-9.16c-0.247,0-0.448,0.201-0.448,0.447v12.967c0,0.217,0.156,0.404,0.37,0.441
			c1.685,0.296,6.994,0.731,13.58,0.731c12.73,0,16.216-2.238,16.216-12.746C30.944,22.738,28.073,20.584,17.468,17.595z"/>
		<path style="fill:#E95D0F;" d="M97.149,3.21c-1.829-2.073-4.58-2.917-9.497-2.917H68.143c-0.247,0-0.448,0.203-0.448,0.454v8.601
			c0,0.251,0.201,0.454,0.448,0.454h1.836l-0.033,25.784h-1.803c-0.247,0-0.448,0.203-0.448,0.454v8.364
			c0,0.251,0.201,0.454,0.448,0.454H85.45c0.247,0,0.448-0.203,0.448-0.454v-8.067c0-0.251-0.201-0.454-0.448-0.454h-3.955v-4.847
			h6.038c4.849,0,7.707-0.899,9.557-3.006c2.013-2.292,2.91-6.133,2.91-12.454C100,9.259,99.12,5.444,97.149,3.21z M92.683,16.235
			l-13.31,6.941c-0.044,0.022-0.09,0.033-0.137,0.033c-0.054,0-0.108-0.015-0.156-0.044c-0.089-0.055-0.143-0.153-0.143-0.259V8.305
			c0-0.108,0.057-0.208,0.148-0.262c0.092-0.054,0.205-0.055,0.298-0.001l13.311,7.662c0.095,0.055,0.153,0.158,0.151,0.269
			C92.843,16.084,92.781,16.184,92.683,16.235z"/>
		<path style="fill:#E95D0F;" d="M64.345,21.503h-1.758l0.001,0.005L50.013,21.48c-0.248,0-0.449,0.201-0.449,0.448v7.953
			c0,0.247,0.201,0.448,0.449,0.448l2.998,0.009v5.787c-0.972,0.115-2.579,0.168-3.594,0.168c-3.45,0-4.491,0-4.491-10.792V20
			c0-10.908,0.926-10.908,4.371-10.908c1.266,0,2.824,0.02,3.649,0.099l0.01,5.349c0,0.247,0.201,0.448,0.448,0.448h9.461
			c0.247,0,0.448-0.201,0.448-0.448V1.56c0-0.21-0.146-0.393-0.352-0.438c-1.563-0.341-8.918-1.065-13.425-1.065
			c-13.386,0-16.276,3.998-16.276,22.518c0,10.134,0.901,15.291,3.213,18.392c2.559,3.434,6.876,3.97,12.969,3.97
			c4.531,0,10.706-0.333,13.513-0.908c0.208-0.043,0.358-0.227,0.358-0.439V30.338h1.031c0.247,0,0.448-0.201,0.448-0.448v-7.94
			C64.793,21.703,64.592,21.503,64.345,21.503z"/>
	</g>
</g>
<g id="Layer_1_1_">
</g>
</svg>
